<?xml version="1.0" standalone="no"?>
<!DOCTYPE svg PUBLIC "-//W3C//DTD SVG 20010904//EN"
 "http://www.w3.org/TR/2001/REC-SVG-20010904/DTD/svg10.dtd">
<svg version="1.0" xmlns="http://www.w3.org/2000/svg"
 width="1920.000000pt" height="950.000000pt" viewBox="0 0 1920.000000 950.000000"
 preserveAspectRatio="xMidYMid meet">

<g transform="translate(0.000000,950.000000) scale(0.100000,-0.100000)"
fill="#000000" stroke="none">
<path d="M1343 9128 c0 -249 -3 -380 -10 -393 -8 -15 -8 -26 0 -40 6 -11 12
-70 12 -132 2 -106 3 -114 31 -155 39 -56 117 -138 132 -138 7 0 12 7 12 16 0
8 -4 13 -9 10 -5 -3 -11 1 -15 9 -6 17 9 21 19 5 4 -6 10 -8 15 -5 4 3 14 -3
21 -12 12 -14 12 -16 -1 -11 -11 4 -16 -1 -17 -15 -2 -14 1 -17 9 -9 6 6 17 8
24 5 10 -4 12 0 8 11 -4 11 0 16 12 17 11 0 14 3 7 6 -7 2 -13 9 -13 15 0 6 6
8 13 5 10 -4 13 2 10 21 -4 21 -2 24 6 12 8 -12 11 -12 11 -1 0 10 9 12 37 6
50 -9 55 -13 43 -36 -8 -14 -7 -19 2 -19 10 0 10 -2 0 -9 -11 -7 -11 -9 2 -14
9 -4 23 -4 31 -1 10 4 15 0 15 -11 0 -9 5 -13 10 -10 6 3 10 1 10 -5 0 -6 -7
-13 -15 -16 -10 -4 -15 -20 -15 -45 0 -22 -5 -39 -11 -39 -6 0 -9 7 -5 15 3 8
1 15 -4 15 -6 0 -10 -6 -10 -14 0 -8 -6 -17 -12 -19 -10 -4 -10 -6 0 -6 7 -1
10 -6 6 -13 -5 -8 -2 -9 10 -5 13 5 15 3 8 -10 -11 -19 -4 -55 10 -47 6 4 5
-3 -1 -14 -8 -14 -8 -23 -1 -27 6 -4 10 -14 9 -23 -1 -10 1 -25 6 -34 4 -10 5
-24 2 -32 -3 -8 1 -17 9 -20 22 -8 25 -8 22 7 -1 6 4 22 11 35 7 13 10 30 7
37 -3 8 0 16 7 19 9 3 9 7 -1 14 -8 5 -11 18 -7 34 4 15 2 29 -4 32 -13 8 -15
46 -3 46 10 0 9 36 0 46 -4 3 -4 12 -1 20 3 8 0 14 -6 14 -19 0 -12 17 9 23
11 3 20 13 20 22 0 9 5 13 10 10 6 -3 10 -1 10 4 0 6 -5 11 -11 11 -8 0 -8 4
-1 13 15 18 11 99 -5 93 -7 -3 -13 -2 -13 2 0 4 -12 8 -27 9 -15 0 -35 11 -44
22 -21 26 -33 27 -25 4 6 -17 5 -17 -8 0 -7 9 -20 15 -27 12 -8 -2 -22 7 -32
20 -10 14 -13 25 -7 25 5 0 10 -5 10 -11 0 -8 5 -7 15 1 9 7 14 19 11 27 -3 7
-1 13 5 13 6 0 8 4 4 10 -3 5 -12 7 -20 3 -11 -4 -13 -1 -9 11 4 12 11 13 24
6 10 -5 20 -15 23 -22 2 -7 4 -1 4 15 0 15 -4 27 -9 27 -6 0 -8 7 -5 15 4 8 2
17 -4 20 -5 4 -6 11 -3 17 4 6 2 8 -4 4 -6 -3 -14 3 -18 16 -4 13 -2 24 4 26
12 4 3 42 -10 42 -6 0 -7 7 -4 16 3 9 3 21 -1 27 -10 16 -13 37 -5 36 23 -4
32 5 37 35 6 31 -4 67 -36 128 -5 10 -5 19 1 23 5 3 8 20 6 38 -3 18 -5 40 -5
50 -1 10 -6 15 -12 12 -5 -4 -4 8 4 27 14 34 7 73 -18 90 -6 5 -5 8 3 8 6 0
12 5 12 11 0 5 -5 7 -11 3 -8 -4 -9 1 -4 16 5 16 4 20 -4 15 -8 -4 -10 1 -6
17 5 19 -1 32 -26 56 -36 35 -46 39 -46 18 0 -8 5 -12 12 -10 6 3 11 -6 10
-22 0 -28 -24 -47 -27 -22 -6 54 -4 70 13 78 24 13 29 13 29 -4 0 -8 5 -18 12
-22 6 -4 8 -3 4 4 -3 6 -2 13 4 17 5 3 10 -3 10 -14 0 -12 7 -21 15 -21 8 0
14 6 12 13 -1 6 4 11 11 9 10 -2 11 4 7 19 -5 14 -3 19 4 15 15 -10 -9 55 -28
74 -8 8 -16 14 -18 13 -10 -8 -33 -1 -33 10 0 17 -1 17 -126 23 l-101 6 0
-374z m257 154 c0 -4 -11 -12 -25 -19 -29 -13 -32 -7 -9 18 15 17 34 17 34 1z
m-23 -48 c-3 -3 -12 -4 -19 -1 -8 3 -5 6 6 6 11 1 17 -2 13 -5z m-107 -70 c0
-8 -4 -14 -8 -14 -4 0 -8 9 -8 19 0 11 4 17 8 15 4 -3 8 -12 8 -20z m240 -766
c0 -12 -10 -9 -26 6 -20 21 -17 28 6 14 11 -7 20 -16 20 -20z m-60 -18 c0 -5
-2 -10 -4 -10 -3 0 -8 5 -11 10 -3 6 -1 10 4 10 6 0 11 -4 11 -10z m105 0 c3
-6 -1 -7 -9 -4 -18 7 -21 14 -7 14 6 0 13 -4 16 -10z m-70 -10 c-3 -5 -10 -10
-16 -10 -5 0 -9 5 -9 10 0 6 7 10 16 10 8 0 12 -4 9 -10z m50 -50 c3 -5 1 -10
-4 -10 -6 0 -11 5 -11 10 0 6 2 10 4 10 3 0 8 -4 11 -10z m35 -110 c0 -5 -5
-10 -11 -10 -5 0 -7 5 -4 10 3 6 8 10 11 10 2 0 4 -4 4 -10z"/>
<path d="M2767 9493 c-4 -3 -7 -17 -7 -30 0 -15 -4 -22 -11 -17 -6 3 -15 1
-19 -6 -7 -11 -13 -10 -33 3 -21 14 -26 14 -31 2 -6 -15 11 -72 27 -92 14 -18
47 -16 69 4 17 16 66 21 108 11 8 -2 31 -21 52 -43 34 -36 43 -54 39 -78 -1
-4 5 -23 13 -41 10 -25 22 -36 45 -41 45 -10 52 -1 46 63 -4 31 -8 101 -9 155
-2 54 -7 101 -11 105 -9 9 -270 14 -278 5z"/>
<path d="M4198 9495 c-4 -4 4 -27 17 -53 13 -25 21 -51 18 -59 -3 -7 2 -13 11
-13 9 0 16 6 16 13 0 6 11 25 25 42 14 16 25 38 23 50 -3 17 -11 20 -53 23
-28 2 -54 0 -57 -3z"/>
<path d="M4517 9493 c-10 -9 -8 -72 3 -118 6 -22 10 -105 9 -185 -1 -178 0
-170 -11 -170 -5 0 -6 -4 -3 -10 3 -5 2 -10 -2 -10 -15 0 -30 -55 -22 -77 4
-11 3 -38 -2 -59 -6 -22 -13 -49 -16 -62 -3 -14 -11 -21 -19 -18 -8 3 -14 1
-14 -4 0 -6 6 -10 13 -10 9 0 9 -2 -1 -9 -11 -6 -8 -12 10 -27 32 -25 51 -94
31 -113 -11 -10 -14 -36 -11 -109 l3 -97 -45 -3 c-33 -2 -70 7 -136 32 -50 19
-115 38 -145 41 -30 4 -71 11 -91 16 -39 10 -33 13 -278 -131 -30 -18 -95 -55
-145 -83 -158 -89 -165 -97 -230 -257 -14 -36 -29 -87 -31 -115 -3 -27 -12
-70 -19 -95 -8 -25 -19 -63 -24 -86 -6 -23 -27 -61 -46 -85 -32 -41 -45 -79
-27 -79 14 0 13 -60 -3 -90 -23 -44 -18 -76 18 -133 18 -29 39 -72 46 -97 18
-64 47 -107 79 -118 43 -15 91 -61 100 -95 7 -27 13 -33 42 -35 46 -5 63 -28
44 -64 -17 -32 -18 -62 -4 -89 14 -25 40 -25 40 0 0 53 38 69 64 29 35 -54 62
-228 37 -236 -6 -2 -11 -28 -11 -57 0 -30 -6 -60 -12 -67 -43 -46 -42 -55 18
-114 31 -30 61 -53 68 -51 6 2 11 25 10 55 -1 46 1 50 17 42 21 -12 59 -59 59
-74 0 -20 74 -131 130 -194 30 -35 73 -71 97 -82 24 -11 43 -24 43 -29 0 -5 8
-12 19 -16 10 -3 31 -17 47 -30 16 -14 36 -25 45 -25 9 0 19 -3 22 -6 4 -4 24
-8 46 -10 22 -2 62 -13 90 -24 33 -13 52 -16 57 -9 4 6 13 4 25 -7 11 -9 19
-12 19 -6 0 6 7 9 15 6 11 -5 13 -2 9 10 -4 12 0 16 15 16 12 0 21 6 21 16 0
8 5 12 11 9 6 -4 24 7 41 24 17 17 25 31 19 31 -6 0 -11 5 -11 10 0 7 6 7 19
0 17 -8 19 -7 16 8 -4 20 29 64 40 54 5 -4 5 -1 1 6 -4 7 -2 20 5 28 16 19
104 246 129 334 11 36 20 95 20 131 0 36 9 101 20 145 10 43 20 90 22 104 2
14 13 30 26 36 13 6 27 16 32 20 12 13 18 102 8 112 -15 15 3 42 25 39 16 -2
22 6 29 37 5 22 4 53 -1 72 -10 35 -5 74 10 74 18 0 25 64 12 115 -20 76 -45
148 -59 170 -7 11 -15 48 -18 82 -6 66 -65 191 -114 245 -22 24 -24 31 -14 53
7 14 12 38 12 53 0 36 -52 145 -99 207 -56 74 -84 134 -81 174 1 20 2 98 3
174 1 75 4 137 7 137 3 0 5 30 6 68 1 37 4 108 8 157 12 136 8 298 -7 307 -9
6 -9 8 0 8 9 0 10 7 4 23 -5 12 -7 32 -5 44 2 12 -4 29 -13 38 -9 9 -12 20 -7
23 14 10 14 44 0 39 -6 -3 -12 3 -12 13 0 14 4 16 16 10 13 -7 16 -2 18 26 2
27 -1 34 -15 35 -16 0 -16 1 1 8 18 7 16 9 -14 19 -35 13 -142 16 -153 5z
m-37 -1878 c60 -2 100 -12 100 -25 0 -5 20 -29 44 -54 24 -24 42 -47 38 -50
-3 -3 0 -6 6 -6 6 0 14 -10 18 -22 13 -40 32 -153 27 -160 -2 -5 -19 -8 -37
-8 -44 0 -134 -30 -223 -75 -69 -34 -73 -38 -73 -69 0 -40 37 -164 54 -181 15
-15 41 -11 62 9 8 9 21 16 28 16 13 0 90 24 169 53 21 8 47 21 57 30 10 8 22
12 26 9 3 -4 2 3 -4 15 -9 16 -9 22 2 26 17 7 26 -3 51 -58 21 -43 29 -176 13
-207 -5 -10 -13 -40 -18 -68 -5 -28 -33 -99 -62 -158 -28 -59 -51 -117 -50
-130 1 -12 -5 -25 -13 -28 -16 -7 -61 -74 -57 -86 1 -5 -3 -8 -9 -8 -5 0 -8
-4 -5 -9 3 -4 -16 -35 -42 -68 -26 -33 -54 -74 -63 -90 -15 -27 -22 -31 -82
-37 -37 -3 -74 -2 -84 3 -10 5 -30 14 -46 22 -27 12 -41 24 -75 64 -37 43 -94
85 -116 85 -36 0 -74 36 -108 104 -27 54 -68 112 -120 170 -10 11 -18 24 -18
28 0 5 -16 35 -37 66 -82 128 -102 214 -73 316 13 46 35 69 49 50 3 -6 19 -11
34 -12 37 -3 47 -9 47 -31 0 -22 29 -36 104 -50 94 -17 164 -14 202 10 33 20
39 35 35 89 -5 72 -5 72 -115 95 -88 19 -142 19 -192 2 -22 -8 -56 -17 -77
-20 l-38 -6 6 32 c4 18 10 37 14 42 3 6 6 38 7 73 1 70 12 98 66 161 45 52 84
74 169 96 34 9 83 28 108 41 43 23 52 24 146 17 55 -3 125 -7 155 -8z"/>
<path d="M4450 6892 c0 -5 9 -17 20 -27 11 -10 20 -15 20 -12 0 4 -9 16 -20
27 -11 11 -20 16 -20 12z"/>
<path d="M4415 6720 c-25 -27 -35 -30 -60 -24 -42 10 -73 8 -89 -5 -21 -18 9
-131 35 -131 6 0 7 5 3 11 -4 7 0 9 14 5 12 -4 44 -7 72 -8 27 0 50 -3 50 -8
0 -12 -51 -30 -101 -34 -26 -3 -55 -10 -65 -16 -25 -15 -79 4 -70 25 7 19 -4
24 -31 14 -21 -8 -30 -49 -10 -49 5 0 17 -10 27 -22 16 -20 28 -23 107 -25
136 -3 159 -3 182 2 33 6 26 -27 -12 -52 -19 -13 -51 -23 -80 -25 -34 -2 -49
-8 -53 -20 -7 -24 3 -38 42 -54 54 -23 97 -18 126 14 40 43 70 91 63 101 -6
10 39 64 47 56 2 -2 10 11 16 29 13 35 37 53 47 36 4 -6 10 -10 15 -10 12 0 0
61 -14 75 -18 18 -104 75 -113 75 -4 1 -17 15 -28 33 -29 47 -79 49 -120 7z"/>
<path d="M4857 9494 c-9 -9 14 -65 24 -58 5 3 9 -2 9 -10 0 -9 4 -16 9 -16 13
0 1 73 -13 82 -13 9 -21 10 -29 2z"/>
<path d="M505 9480 c-3 -5 3 -10 14 -10 12 0 21 5 21 10 0 6 -6 10 -14 10 -8
0 -18 -4 -21 -10z"/>
<path d="M1784 9472 c4 -11 2 -31 -3 -45 -9 -22 -8 -25 6 -20 13 5 14 3 3 -17
-8 -15 -8 -20 -1 -16 15 10 14 -17 -1 -33 -11 -11 -10 -12 0 -6 8 4 19 0 27
-11 8 -11 15 -14 15 -7 0 6 -5 15 -10 18 -18 11 0 25 24 19 21 -5 24 -1 30 37
9 55 -16 92 -63 97 -29 3 -32 1 -27 -16z"/>
<path d="M5123 9470 c1 -13 8 -20 23 -20 17 0 21 4 17 20 -3 11 -14 20 -24 20
-12 0 -17 -7 -16 -20z"/>
<path d="M15325 9456 c-17 -17 -52 -50 -78 -73 -45 -40 -47 -44 -41 -83 6 -35
4 -39 -10 -34 -9 3 -16 1 -16 -6 0 -6 -4 -8 -10 -5 -5 3 -10 -1 -10 -10 0 -9
-3 -14 -7 -12 -16 9 -53 -13 -53 -32 0 -11 -6 -22 -12 -24 -7 -3 -4 -6 7 -7
19 -1 19 -1 2 -14 -15 -11 -15 -15 -3 -25 17 -14 63 -5 75 16 4 8 11 14 14 14
23 -3 29 1 24 18 -3 13 1 21 14 24 11 3 19 9 18 14 -4 23 2 35 17 29 8 -3 12
-2 9 3 -3 5 -1 12 5 16 5 3 10 1 10 -4 0 -6 5 -11 10 -11 6 0 10 6 10 14 0 8
14 24 30 36 17 12 27 26 24 32 -4 7 -2 8 4 4 7 -4 12 -3 12 2 0 5 9 12 19 15
15 3 18 11 14 28 -3 18 -2 20 5 10 8 -11 13 -8 27 13 10 14 24 26 31 26 8 0
14 4 14 10 0 5 10 18 22 30 l22 20 -85 -1 c-80 -1 -85 -3 -114 -33z"/>
<path d="M4896 9374 c-3 -9 -6 -20 -6 -25 0 -15 18 -10 23 6 4 11 4 10 3 -2
-1 -18 22 -53 35 -53 7 0 2 20 -17 73 -8 21 -30 22 -38 1z"/>
<path d="M588 9335 c2 -14 8 -25 13 -25 14 0 11 26 -5 39 -11 9 -12 6 -8 -14z"/>
<path d="M4857 9344 c-3 -4 1 -13 9 -21 17 -18 29 -11 21 12 -7 16 -19 20 -30
9z"/>
<path d="M3907 9215 c-19 -39 -19 -39 17 -25 23 8 26 7 26 -13 0 -12 5 -29 10
-37 9 -13 11 -13 20 0 14 21 12 32 -9 60 -17 21 -21 22 -36 10 -15 -12 -16
-11 -10 13 10 37 2 34 -18 -8z"/>
<path d="M5196 9231 c-8 -12 20 -22 40 -14 13 5 13 7 2 14 -17 11 -35 11 -42
0z"/>
<path d="M5249 9214 c-9 -11 -22 -14 -42 -10 -23 5 -28 3 -23 -9 3 -8 1 -17
-3 -19 -7 -5 -7 -38 -2 -100 1 -4 8 -6 15 -3 11 4 13 1 10 -11 -4 -12 -3 -13
3 -4 5 7 17 10 25 7 17 -7 35 12 23 23 -3 3 -10 0 -14 -7 -5 -8 -11 -9 -15 -3
-9 15 21 23 51 11 22 -8 24 -7 14 5 -9 11 -8 15 4 20 9 3 15 0 15 -9 0 -19 10
-19 24 0 8 11 15 12 26 4 12 -9 11 -10 -5 -4 -16 5 -17 4 -8 -6 10 -10 18 -8
40 12 15 13 21 16 14 7 -12 -15 -11 -18 3 -18 9 0 16 4 16 10 0 5 7 6 17 3 11
-4 14 -3 9 5 -4 7 -1 12 9 12 9 0 14 -4 10 -9 -3 -5 0 -13 6 -17 9 -5 10 1 5
20 -5 21 -3 27 6 24 14 -5 38 15 38 31 0 6 -4 11 -10 11 -5 0 -10 -4 -10 -8 0
-4 -9 -8 -19 -8 -11 0 -18 3 -15 7 5 8 -27 22 -34 14 -3 -3 1 -5 9 -6 8 0 3
-5 -10 -10 -30 -12 -55 6 -31 22 12 8 10 9 -7 4 -13 -3 -28 -3 -35 2 -20 12
-42 9 -58 -7 -8 -9 -12 -11 -7 -6 4 6 7 16 7 24 0 12 -3 12 -17 1 -11 -10 -14
-10 -9 -1 11 18 -9 15 -25 -4z m206 -64 c3 -5 2 -10 -4 -10 -5 0 -13 5 -16 10
-3 6 -2 10 4 10 5 0 13 -4 16 -10z"/>
<path d="M4968 9166 c-6 -29 16 -75 27 -57 9 15 -3 81 -14 81 -5 0 -11 -11
-13 -24z"/>
<path d="M5564 9182 c-9 -5 -8 -10 1 -19 11 -10 13 -9 12 7 -1 11 -1 20 -2 20
0 0 -5 -4 -11 -8z"/>
<path d="M5517 9143 c-12 -12 -7 -22 8 -17 8 4 15 10 15 15 0 11 -14 12 -23 2z"/>
<path d="M774 9122 c-10 -6 -11 -51 -2 -93 2 -8 -4 -13 -14 -13 -10 1 -14 -4
-11 -12 6 -15 -2 -17 -32 -5 -23 10 -55 -4 -55 -23 0 -15 21 -34 71 -64 l36
-22 27 25 c15 14 29 25 31 25 2 0 16 -12 30 -27 l25 -28 0 24 c0 39 -22 103
-52 150 -15 25 -28 51 -28 58 0 14 -9 16 -26 5z"/>
<path d="M1744 9108 c-13 -42 -13 -71 2 -85 12 -12 18 -13 29 -3 18 15 11 76
-11 97 -10 11 -14 9 -20 -9z"/>
<path d="M4055 9105 c12 -44 8 -135 -6 -135 -5 0 -9 -4 -9 -9 0 -14 30 -41 45
-41 30 0 48 131 23 161 -7 8 -24 23 -37 34 l-24 20 8 -30z"/>
<path d="M3829 9104 c-22 -26 13 -58 38 -33 7 7 15 5 27 -6 15 -15 16 -14 16
10 0 23 -3 26 -22 22 -23 -6 -23 -6 -3 9 19 14 18 15 -13 12 -18 -1 -37 -8
-43 -14z"/>
<path d="M5235 9030 c-3 -6 1 -7 9 -4 18 7 21 14 7 14 -6 0 -13 -4 -16 -10z"/>
<path d="M4012 8925 c-2 -27 16 -44 28 -25 10 16 1 50 -14 50 -6 0 -13 -11
-14 -25z"/>
<path d="M2324 8845 c-8 -44 2 -57 16 -21 13 34 13 56 0 56 -5 0 -12 -16 -16
-35z"/>
<path d="M8380 8870 c0 -5 10 -10 23 -10 18 0 19 2 7 10 -19 13 -30 13 -30 0z"/>
<path d="M8280 8845 c-13 -14 -30 -25 -37 -25 -7 0 -46 -11 -85 -25 -83 -29
-81 -29 -72 -13 4 7 3 8 -4 4 -7 -4 -12 -13 -12 -20 0 -16 -62 -50 -123 -66
-48 -13 -72 -30 -42 -30 9 0 26 5 38 10 13 6 5 -5 -19 -27 -22 -21 -53 -56
-69 -78 -53 -71 -78 -96 -94 -90 -9 3 -12 3 -9 -1 10 -9 -19 -62 -54 -98 l-29
-31 10 27 c6 15 15 35 20 45 6 10 17 34 26 53 l16 35 -20 -25 c-11 -14 -23
-33 -27 -42 -3 -10 -9 -18 -14 -18 -22 0 -16 20 20 61 22 24 39 40 40 34 0
-12 20 16 20 29 0 5 -25 -16 -56 -47 -31 -31 -53 -61 -49 -67 3 -5 2 -10 -2
-10 -5 0 -13 -19 -19 -42 -5 -23 -16 -43 -24 -46 -9 -2 -11 0 -5 5 13 9 18 56
6 48 -5 -2 -12 -21 -15 -40 -4 -19 -11 -35 -17 -35 -6 0 -8 -4 -5 -9 3 -5 -5
-20 -19 -35 -13 -15 -25 -30 -25 -34 0 -18 -43 -62 -60 -62 -10 0 -22 -4 -25
-10 -3 -5 -1 -10 5 -10 6 0 8 -5 5 -10 -4 -6 -10 -8 -15 -5 -5 3 -14 -4 -20
-15 -6 -11 -29 -28 -51 -36 -21 -9 -39 -20 -39 -26 0 -5 -10 -6 -22 -3 -17 4
-19 4 -9 -3 11 -8 10 -11 -7 -16 -12 -4 -24 -15 -27 -25 -3 -10 -16 -24 -30
-31 -26 -14 -51 -62 -40 -79 3 -6 2 -11 -4 -11 -5 0 -13 -9 -16 -20 -4 -11
-11 -18 -16 -15 -5 4 -5 -5 1 -20 6 -15 10 -43 9 -63 0 -34 -1 -35 -10 -13 -5
13 -6 33 -3 44 6 20 6 20 -10 4 -10 -10 -15 -25 -11 -36 3 -10 -1 -24 -10 -31
-12 -10 -15 -10 -15 3 0 10 -8 14 -25 13 -24 -3 -24 -3 -9 28 l16 31 -27 -30
c-15 -16 -31 -31 -36 -31 -5 -1 -12 -3 -16 -4 -5 -1 -11 -2 -15 -1 -5 0 -8 -6
-8 -14 0 -8 -4 -15 -10 -15 -11 0 -50 40 -50 52 0 4 -6 8 -14 8 -7 0 -19 7
-27 16 -7 8 -21 13 -31 11 -10 -3 -18 -1 -18 5 0 5 -6 6 -12 2 -16 -10 -128
-11 -128 -1 0 4 -5 7 -11 7 -5 0 -7 -4 -4 -10 3 -5 2 -10 -4 -10 -5 0 -12 4
-16 10 -3 5 -12 7 -20 3 -8 -3 -15 0 -15 7 0 10 -3 10 -14 1 -8 -7 -16 -8 -18
-3 -5 14 -88 22 -88 9 0 -7 -5 -5 -10 3 -9 13 -11 13 -20 0 -5 -8 -10 -10 -10
-4 0 8 -30 10 -97 7 -54 -2 -114 -4 -133 -4 -19 0 -41 -6 -50 -13 -8 -7 -27
-12 -41 -11 -18 1 -25 -3 -22 -12 3 -8 -3 -13 -17 -13 -16 0 -20 4 -16 15 4
13 2 14 -15 5 -11 -7 -17 -16 -12 -23 4 -7 -5 -4 -20 6 -15 10 -31 15 -36 13
-5 -3 -14 1 -21 10 -7 8 -19 13 -27 10 -8 -3 -12 -2 -9 3 3 4 -6 14 -20 22
-21 11 -27 11 -33 0 -7 -10 -9 -10 -14 2 -4 12 -15 12 -72 2 -54 -11 -65 -10
-61 0 3 10 -2 11 -22 6 -15 -5 -33 -6 -39 -4 -7 3 -16 -4 -20 -14 -3 -10 -11
-21 -16 -24 -4 -3 -2 -13 7 -21 8 -9 12 -24 9 -37 -4 -15 1 -23 18 -30 13 -5
18 -10 10 -10 -24 -1 13 -34 66 -61 60 -29 60 -29 44 -40 -9 -5 -2 -8 22 -8
20 0 40 -3 46 -7 6 -3 11 -1 11 5 0 6 -10 14 -22 19 -18 6 -19 9 -5 14 10 4
17 2 17 -4 0 -5 10 -13 23 -18 24 -9 44 10 31 31 -5 8 -2 9 9 5 10 -3 17 -2
17 3 0 19 30 -3 36 -26 3 -13 13 -24 21 -24 12 0 12 2 -1 16 -25 24 -19 39 16
40 27 1 29 0 15 -11 -9 -7 -17 -15 -17 -19 0 -12 17 -6 40 16 l23 22 -7 -27
c-4 -17 -2 -27 4 -27 6 0 9 4 6 9 -3 5 5 9 18 9 16 0 26 -8 29 -20 4 -14 2
-18 -9 -14 -11 4 -11 -1 3 -27 9 -17 16 -40 14 -49 -1 -10 4 -18 11 -18 9 0 9
-3 2 -8 -11 -7 -3 -139 11 -174 4 -11 3 -18 -4 -18 -6 0 -11 -5 -11 -11 0 -6
7 -8 18 -4 14 5 15 4 5 -6 -14 -14 -18 -33 -5 -26 9 6 7 -97 -3 -112 -3 -6 -2
-11 3 -11 5 0 9 -20 8 -45 -1 -25 2 -45 6 -45 7 0 8 -15 8 -77 0 -18 5 -35 10
-38 6 -4 8 -11 4 -16 -3 -6 -5 -49 -5 -97 1 -48 2 -94 1 -102 0 -8 0 -24 -1
-35 0 -11 -4 -22 -8 -25 -13 -8 -25 -54 -12 -46 7 5 7 -3 -1 -25 -8 -23 -8
-37 0 -50 8 -13 8 -19 -1 -23 -9 -5 -9 -7 1 -12 6 -3 12 -14 12 -25 0 -10 4
-19 9 -19 18 0 24 -46 24 -188 0 -80 4 -145 10 -149 5 -3 3 -10 -4 -15 -10 -7
-11 -11 -2 -14 7 -3 9 -12 6 -21 -4 -11 -2 -14 5 -9 7 4 12 3 12 -3 0 -5 -6
-12 -12 -14 -10 -4 -10 -6 0 -6 18 -1 15 -18 -5 -26 -39 -16 -61 -13 -73 10
-16 29 -54 47 -68 33 -8 -8 -9 -4 -5 13 5 19 3 22 -7 12 -7 -6 -19 -9 -28 -6
-9 4 -13 2 -9 -4 7 -11 -22 -28 -31 -18 -3 3 1 5 9 6 8 0 3 4 -9 10 -13 5 -28
7 -33 3 -5 -3 -9 4 -9 15 0 11 5 23 10 26 6 4 8 15 5 26 -4 10 -3 24 2 31 4 7
8 28 9 46 0 19 6 37 12 41 11 7 20 37 21 76 1 17 3 18 11 5 9 -13 11 -13 20 0
5 8 9 20 9 25 0 6 -3 4 -6 -3 -4 -10 -9 -9 -24 4 -10 9 -16 20 -14 24 3 4 -10
18 -27 31 -17 13 -37 29 -43 36 -7 7 -16 9 -19 5 -4 -3 -4 1 0 11 4 12 1 17
-11 17 -9 0 -14 4 -11 8 2 4 -4 9 -16 9 -11 1 -27 10 -36 20 -10 10 -27 18
-40 17 -12 -1 -25 2 -27 6 -6 10 -55 0 -55 -11 0 -5 -7 -5 -17 -2 -11 4 -14 3
-9 -5 4 -7 -4 -17 -21 -24 -15 -7 -38 -23 -50 -35 -12 -13 -25 -19 -28 -13 -3
5 -12 7 -20 4 -15 -6 -45 17 -45 35 0 6 -13 10 -30 9 -19 -1 -30 -8 -30 -18 0
-12 -2 -12 -9 -1 -6 9 -11 10 -15 2 -4 -6 -4 -11 0 -11 3 0 1 -7 -7 -16 -20
-25 -19 -153 2 -185 10 -14 21 -37 24 -51 4 -14 20 -38 36 -54 16 -15 29 -34
29 -41 0 -7 5 -13 11 -13 6 0 9 -7 6 -15 -4 -8 -2 -17 3 -20 5 -3 8 -13 8 -23
0 -9 3 -26 7 -37 6 -17 5 -17 -5 -5 -10 13 -11 11 -7 -7 3 -13 1 -23 -5 -23
-5 0 -7 -4 -3 -9 3 -5 -2 -17 -11 -25 -9 -9 -11 -16 -4 -16 6 0 8 -5 4 -12 -4
-6 -8 -23 -10 -37 -1 -14 -6 -39 -9 -55 -6 -19 -4 -31 6 -37 12 -8 12 -11 -1
-19 -13 -10 -13 -11 0 -9 23 3 51 -12 44 -23 -4 -6 -1 -8 7 -4 8 3 22 9 32 12
9 4 17 12 17 20 0 8 6 11 17 7 10 -4 14 -2 10 4 -4 6 1 17 10 24 14 12 16 12
9 -1 -4 -9 -1 -8 7 3 8 9 18 17 23 17 6 0 18 14 28 31 17 29 19 30 38 13 15
-14 21 -15 27 -5 6 9 10 8 13 -7 4 -13 14 -19 33 -19 16 0 33 -7 39 -15 6 -8
19 -17 29 -21 9 -3 17 -12 17 -19 0 -9 3 -8 10 2 8 13 10 12 10 -4 0 -12 5
-16 15 -13 8 4 27 0 42 -8 37 -19 45 -19 66 5 17 21 42 26 51 12 3 -5 19 -7
36 -4 23 3 29 1 25 -10 -3 -8 1 -21 10 -28 19 -16 20 -51 1 -44 -7 3 -16 -2
-19 -10 -4 -10 -1 -13 7 -10 9 4 14 -4 14 -22 0 -16 5 -30 11 -32 6 -2 9 -8 5
-13 -3 -5 0 -9 5 -9 6 0 11 -9 11 -21 0 -13 4 -18 12 -13 8 5 9 0 5 -15 -4
-18 -2 -21 10 -17 12 5 13 3 6 -6 -11 -16 -16 -44 -17 -118 -1 -30 -5 -58 -11
-62 -7 -5 -6 -8 0 -8 6 0 11 -8 12 -17 0 -10 4 -40 7 -68 4 -27 8 -75 10 -105
2 -30 6 -63 11 -72 5 -12 3 -18 -6 -18 -9 0 -10 -3 -4 -8 15 -11 36 -62 30
-73 -4 -5 0 -9 7 -9 16 -1 -30 -40 -46 -40 -8 0 -12 -13 -12 -34 1 -19 4 -32
8 -29 5 2 8 -2 8 -10 0 -8 -7 -18 -16 -21 -9 -4 -14 -9 -11 -12 6 -6 138 44
152 59 7 7 4 8 -8 4 -11 -4 -16 -3 -12 3 7 11 -12 51 -29 62 -8 6 -8 8 1 8 6
0 14 14 18 31 4 17 9 28 12 25 3 -3 15 1 26 9 14 10 26 11 44 4 14 -5 28 -7
31 -5 4 2 5 -18 4 -45 -2 -27 -8 -49 -14 -49 -5 0 -7 -4 -4 -9 4 -5 0 -11 -6
-14 -7 -2 -11 -7 -8 -10 6 -5 163 29 280 62 61 17 66 20 30 16 l-45 -5 30 14
c17 8 26 15 22 15 -4 1 -2 7 5 15 7 8 16 12 20 10 4 -2 9 0 13 6 3 5 18 10 32
10 19 0 24 4 19 16 -5 13 0 16 29 12 19 -2 35 0 35 5 0 5 6 7 13 5 6 -3 12 -9
12 -14 0 -5 3 -14 7 -19 9 -15 -3 -32 -27 -38 -11 -3 0 -3 25 0 65 8 155 39
153 52 -2 6 4 11 13 11 9 0 12 5 8 12 -4 7 -3 8 4 4 6 -4 17 2 23 13 8 11 19
17 28 13 9 -3 13 -1 8 3 -4 5 3 19 15 32 12 13 16 23 10 23 -7 0 -12 -5 -12
-12 0 -6 -3 -8 -6 -5 -4 4 -2 13 4 20 9 10 6 17 -9 30 -11 10 -25 15 -31 11
-7 -5 -8 -2 -3 6 6 10 4 12 -8 7 -43 -16 -98 29 -142 118 -39 78 -39 79 -26
71 6 -4 11 -1 11 8 0 9 -5 16 -11 16 -8 0 -9 4 0 13 6 8 8 16 5 19 -3 3 -7 27
-10 53 -5 57 -27 87 -79 111 -32 15 -40 24 -39 46 0 15 -4 24 -8 22 -5 -3 -6
5 -3 19 4 14 2 28 -4 31 -6 4 -11 20 -11 36 0 22 -8 33 -35 50 -53 33 -65 68
-65 185 0 113 12 153 50 161 75 18 101 26 96 31 -3 3 -2 11 3 17 12 16 22 62
14 69 -3 4 -12 2 -20 -4 -10 -9 -13 -8 -13 4 0 18 -81 22 -92 4 -5 -8 -8 -7
-8 5 0 9 -5 18 -11 20 -10 3 -22 46 -33 122 -5 27 -2 42 6 48 9 6 10 10 2 16
-7 4 -9 32 -7 72 6 115 1 395 -7 395 -6 0 -3 198 2 202 5 2 8 15 8 29 0 17 6
24 19 24 10 0 21 7 25 15 3 8 14 15 24 15 10 0 27 8 38 18 10 10 35 25 54 35
19 9 29 17 21 17 -8 0 -11 3 -8 6 9 9 58 14 53 5 -6 -10 49 -71 64 -71 6 0 9
-3 7 -7 -3 -5 12 -8 33 -8 22 -1 36 3 33 9 -4 5 3 7 15 4 12 -4 20 -2 17 3 -3
4 -1 16 4 26 5 10 15 37 22 61 7 23 14 40 17 38 2 -3 -1 -20 -6 -38 -17 -55
-25 -114 -14 -103 6 6 12 21 14 34 1 14 9 27 17 29 11 4 13 -5 7 -46 -4 -35
-3 -53 5 -58 9 -5 10 -2 6 10 -4 11 -3 15 4 10 8 -4 9 3 4 26 -5 24 -4 31 5
25 19 -12 4 -145 -20 -170 -27 -29 -25 -41 2 -15 l22 21 19 -23 c37 -46 80
-131 81 -158 1 -16 -3 -26 -8 -22 -5 3 -7 -1 -4 -9 3 -9 -3 -26 -13 -40 -10
-13 -19 -29 -19 -36 0 -7 -7 -10 -17 -7 -16 5 -16 4 0 -6 17 -11 17 -14 3 -35
-9 -14 -16 -31 -16 -39 0 -8 -7 -22 -16 -30 -8 -9 -11 -16 -4 -16 6 0 4 -10
-6 -25 -8 -13 -13 -30 -9 -37 4 -7 -1 -4 -9 6 -9 11 -19 17 -22 13 -10 -10
-35 13 -28 25 4 7 0 7 -12 0 -11 -5 -28 -6 -39 -2 -13 5 -28 1 -44 -11 -13
-11 -30 -19 -37 -19 -17 0 -65 -51 -58 -62 3 -4 -1 -5 -9 -2 -17 6 -31 -22
-15 -32 7 -4 7 -9 0 -13 -7 -4 -4 -19 7 -44 10 -20 20 -34 24 -30 4 3 7 1 7
-6 0 -7 6 -11 14 -8 8 3 19 -5 26 -18 11 -20 10 -26 -4 -40 -9 -9 -16 -25 -16
-36 0 -10 -4 -19 -10 -19 -5 0 -10 -5 -10 -11 0 -5 4 -7 10 -4 7 4 7 -2 1 -19
-8 -19 -6 -26 5 -30 10 -4 13 -2 8 7 -4 6 2 3 14 -7 12 -10 34 -19 49 -18 41
1 85 20 77 33 -4 8 0 8 15 0 12 -7 21 -8 20 -4 -4 23 2 35 16 29 11 -4 15 0
13 11 -4 25 29 28 37 4 3 -12 11 -21 16 -21 12 0 11 7 -2 32 -15 27 3 47 26
28 8 -7 14 -15 11 -17 -2 -2 0 -20 4 -39 8 -35 -5 -58 -20 -34 -5 9 -9 9 -14
1 -4 -6 -3 -11 3 -11 6 0 8 -7 4 -16 -3 -8 -12 -13 -19 -10 -10 4 -13 -9 -11
-57 1 -34 6 -68 10 -74 5 -7 4 -13 -1 -13 -12 0 -4 -39 12 -59 8 -12 8 -13 -2
-7 -9 6 -8 -3 3 -31 9 -21 19 -45 22 -53 8 -20 44 -102 51 -115 3 -5 -7 1 -21
14 -15 13 -24 28 -20 34 3 6 1 7 -5 3 -5 -3 -12 -3 -15 1 -2 5 -2 1 0 -7 9
-32 5 -63 -6 -55 -13 8 -7 -35 9 -65 12 -23 12 -24 -3 -11 -10 8 -17 9 -17 3
0 -6 5 -14 10 -17 6 -3 10 -15 10 -26 0 -10 5 -19 11 -19 5 0 8 -4 4 -9 -3 -5
2 -16 10 -24 17 -18 20 -31 5 -22 -5 3 -10 -1 -10 -9 0 -9 5 -16 11 -16 5 0 7
-5 3 -11 -3 -6 -15 -8 -26 -6 -14 4 -18 1 -14 -8 3 -9 0 -12 -10 -8 -7 3 -14
10 -14 17 0 6 -4 5 -9 -4 -6 -8 -7 -18 -5 -22 3 -4 1 -8 -5 -8 -5 0 -13 5 -16
10 -11 17 -35 12 -28 -7 4 -11 3 -14 -5 -9 -7 4 -12 2 -12 -6 0 -10 -3 -9 -11
2 -8 11 -9 9 -3 -10 3 -14 10 -30 15 -36 13 -16 -2 -26 -19 -11 -13 10 -14 8
-7 -13 4 -14 12 -31 18 -38 5 -7 7 -15 4 -18 -3 -3 3 -15 13 -27 10 -12 28
-33 39 -46 11 -13 18 -27 15 -32 -3 -5 2 -6 10 -3 10 4 16 1 16 -9 0 -8 7 -18
16 -21 21 -8 26 -8 20 3 -3 5 22 3 57 -4 34 -8 86 -12 114 -10 29 2 55 0 58
-6 4 -5 18 -3 35 6 16 8 36 15 44 15 8 0 48 32 88 70 74 71 89 78 94 46 2 -12
-2 -16 -12 -12 -12 4 -12 2 -4 -14 9 -16 6 -22 -17 -34 -16 -8 -23 -15 -18
-16 15 0 112 58 121 72 5 7 -5 5 -20 -6 -23 -15 -30 -16 -37 -5 -4 8 -3 16 2
20 6 3 10 9 9 13 -4 14 12 86 19 86 4 0 15 16 25 36 9 20 20 34 23 31 3 -4 -2
-18 -11 -32 -9 -14 -12 -25 -6 -25 5 0 16 13 24 29 9 16 26 31 38 35 34 9 40
7 32 -6 -4 -7 6 2 23 20 34 35 36 36 61 23 9 -5 26 -12 36 -16 18 -5 15 -11
-25 -47 -27 -25 -39 -43 -31 -45 6 -3 10 -9 6 -14 -3 -5 4 -9 14 -9 16 0 19
-5 15 -22 -4 -16 7 -7 32 25 20 27 39 46 42 44 4 -5 -54 -222 -65 -241 -3 -5
1 -6 8 -1 9 5 11 2 6 -11 -3 -11 -17 -73 -30 -139 -85 -406 -108 -507 -120
-542 -12 -34 -12 -42 1 -58 15 -19 15 -19 10 3 -6 25 24 52 59 52 29 0 37 11
17 25 -19 14 -20 90 -1 112 5 7 7 17 4 22 -4 5 -2 12 3 15 7 5 20 46 25 79 1
4 8 12 16 18 12 8 12 12 2 16 -10 4 -10 9 3 23 12 14 16 51 20 191 7 234 14
283 41 272 8 -3 26 3 42 13 15 10 32 17 37 16 6 -2 4 2 -2 9 -18 18 -16 34 2
19 18 -15 20 1 3 18 -9 9 -9 12 2 12 10 0 10 3 -3 13 -12 8 -14 16 -7 27 9 13
11 13 20 0 8 -13 11 -12 23 4 9 12 20 17 31 13 9 -4 16 -4 16 -2 0 2 -43 46
-96 97 -152 147 -249 310 -288 483 -8 39 -29 130 -47 204 -30 131 -30 136 -15
184 9 27 13 53 10 58 -3 5 -2 9 3 8 19 -3 33 2 33 12 0 11 30 45 39 43 14 -2
40 9 37 15 -3 4 30 18 72 31 42 14 69 26 60 28 -21 4 -24 18 -5 24 6 2 31 4
54 4 23 -1 41 3 40 8 -1 6 15 19 35 30 20 11 41 30 47 42 5 11 28 30 50 41 40
20 41 20 41 2 0 -11 4 -19 9 -19 15 0 21 31 19 89 -2 44 -8 59 -34 88 -28 30
-30 38 -24 73 5 29 3 43 -6 51 -19 15 -18 39 1 39 8 0 15 9 15 19 0 11 4 22 9
26 6 3 16 18 24 33 58 111 67 131 73 161 1 8 6 17 11 20 5 3 9 38 10 76 1 39
8 89 16 113 8 23 11 44 7 47 -14 9 0 109 17 125 9 8 13 9 9 3 -4 -7 -4 -13 -1
-13 3 0 11 13 16 29 6 15 21 33 34 39 13 6 31 23 41 37 9 14 22 25 28 25 7 0
21 8 32 18 14 12 35 17 77 16 43 0 61 4 67 15 6 10 10 11 10 4 0 -7 3 -12 8
-12 4 1 12 0 17 -1 6 -1 15 -3 20 -5 6 -1 24 -3 42 -3 24 -2 31 -6 27 -17 -4
-8 -2 -15 4 -15 5 0 13 8 17 18 6 16 7 16 17 -2 6 -10 13 -14 17 -9 13 21 69
-17 104 -70 20 -30 43 -57 52 -61 8 -3 15 -12 15 -19 0 -8 8 -25 18 -38 27
-34 84 -141 72 -134 -6 3 -10 2 -10 -4 0 -5 5 -13 10 -16 6 -3 10 -13 10 -22
0 -9 6 -24 14 -32 17 -20 29 -71 17 -71 -22 0 -17 -30 11 -59 17 -17 25 -31
18 -31 -10 0 -10 -3 0 -15 7 -8 9 -15 5 -15 -5 0 0 -9 10 -20 19 -21 17 -48
-10 -115 -8 -19 -8 -19 12 -2 19 17 21 17 34 0 13 -16 12 -17 -2 -5 -14 10
-18 10 -23 -3 -3 -9 -2 -14 3 -11 11 7 23 -22 15 -35 -3 -6 -1 -16 6 -23 6 -8
9 -26 6 -40 -5 -26 8 -36 17 -13 4 9 6 9 6 -1 1 -7 6 -10 12 -6 8 5 8 1 0 -14
-8 -15 -7 -21 3 -25 17 -7 45 -137 29 -137 -5 0 -9 -8 -9 -17 -1 -25 -13 -141
-20 -189 -3 -22 -7 -71 -10 -110 -2 -38 -4 -80 -6 -94 -1 -14 2 -47 6 -75 4
-27 8 -58 9 -67 1 -10 4 -18 7 -18 3 0 5 -16 5 -35 -2 -35 9 -47 18 -22 3 7 6
5 6 -5 1 -10 -4 -18 -10 -18 -5 0 -7 -4 -4 -10 6 -10 -49 -232 -66 -262 -5
-10 -9 -22 -9 -27 0 -5 -14 -33 -32 -61 -22 -36 -28 -54 -21 -61 13 -13 3 -27
-94 -122 -136 -132 -275 -209 -443 -243 -78 -15 -160 -16 -270 0 -14 2 -17 1
-7 -1 9 -2 17 -9 17 -14 0 -5 3 -8 8 -7 4 0 15 -2 25 -7 15 -6 16 -10 5 -16
-9 -6 -7 -9 9 -9 17 0 21 -4 16 -17 -3 -10 -3 -15 1 -12 4 4 21 -6 39 -22 17
-16 33 -26 36 -24 2 3 11 -1 19 -8 13 -10 15 -9 10 4 -5 13 -2 16 13 12 10 -3
19 -9 19 -13 0 -4 13 -7 30 -6 22 2 29 -2 27 -13 -1 -9 -6 -20 -12 -24 -6 -6
-5 -10 3 -14 10 -4 10 -8 1 -19 -9 -11 -7 -14 14 -14 14 0 29 -5 32 -11 5 -7
14 -4 26 7 11 9 22 14 26 11 3 -4 1 -7 -5 -7 -7 0 -12 -5 -12 -11 0 -6 15 -2
34 9 31 18 36 19 53 5 17 -14 17 -14 -6 -9 -15 3 -33 -2 -48 -14 -13 -10 -31
-16 -40 -13 -11 4 -14 3 -9 -6 5 -8 -3 -16 -23 -24 -26 -9 -43 -27 -26 -27 12
0 55 24 55 32 0 4 7 8 15 8 18 0 20 -16 3 -23 -9 -4 -9 -6 -2 -6 7 -1 20 7 31
17 10 9 13 13 6 8 -16 -11 -17 6 -1 22 16 16 41 16 32 0 -4 -7 2 -5 14 6 16
14 19 23 12 36 -13 24 16 52 31 29 8 -13 13 -6 10 14 -1 4 15 15 34 24 26 13
34 21 29 35 -3 10 0 18 6 18 6 0 8 -4 5 -10 -10 -17 12 -11 26 7 12 15 12 16
-3 10 -10 -3 -18 -2 -18 3 0 6 -8 5 -19 -2 -10 -6 -17 -17 -15 -23 3 -6 -7
-17 -21 -23 -35 -16 -44 -15 -21 3 16 12 17 17 5 32 -7 10 -10 15 -6 12 4 -3
27 12 50 34 39 37 85 63 94 53 2 -2 -10 -10 -26 -17 -33 -15 -47 -37 -32 -52
5 -5 12 -1 16 12 7 23 6 22 49 25 16 0 31 7 34 15 3 9 0 11 -9 7 -8 -4 -6 -1
5 6 10 7 33 24 49 38 30 24 30 13 -1 -22 -22 -26 -5 -42 23 -24 14 9 26 12 30
7 3 -5 1 -12 -5 -16 -5 -3 -10 -18 -9 -33 0 -23 2 -24 8 -8 6 15 10 16 15 7 5
-8 -1 -22 -15 -37 -23 -24 -14 -34 11 -11 7 6 3 -3 -10 -21 -12 -19 -22 -44
-22 -58 0 -13 -4 -24 -9 -24 -5 0 -9 -4 -9 -10 0 -5 6 -7 14 -4 8 3 0 -21 -20
-62 -19 -36 -32 -69 -29 -73 3 -3 11 1 16 9 9 12 10 12 5 -3 -3 -10 -6 -24 -6
-29 0 -6 -3 -8 -6 -5 -10 9 -65 -33 -58 -44 3 -5 10 -7 15 -4 14 10 11 -2 -7
-20 -12 -12 -19 -13 -30 -4 -14 12 -15 11 -18 -31 -1 -8 -9 -14 -18 -14 -10 1
-14 -4 -11 -12 3 -8 -1 -14 -8 -14 -11 0 -11 -3 1 -10 8 -5 22 -9 30 -9 10 0
8 3 -4 8 -18 7 -18 8 5 14 14 4 28 2 34 -6 6 -6 15 -13 22 -14 16 -3 192 272
248 390 26 53 51 100 56 103 5 3 9 13 9 24 0 10 7 20 15 24 8 3 15 14 15 24 0
11 6 25 14 31 11 9 15 6 20 -16 13 -56 60 -193 67 -193 7 0 20 77 21 118 0 25
8 28 27 10 11 -11 12 -8 6 12 -4 14 -10 32 -12 40 -3 8 5 4 16 -9 26 -28 27
-20 4 16 -10 15 -12 24 -5 20 6 -5 12 -4 12 2 0 6 8 8 18 4 9 -3 5 4 -11 16
-15 13 -24 27 -21 33 5 7 2 8 -5 4 -8 -5 -14 0 -18 13 -3 11 -9 18 -14 15 -5
-3 -9 -1 -9 5 0 5 -3 18 -7 28 -5 14 0 13 22 -7 l28 -25 -18 28 c-22 35 -17
40 20 21 19 -9 25 -10 18 -3 -26 26 -11 25 89 -8 55 -18 103 -31 106 -28 3 2
-1 7 -9 9 -8 3 -34 12 -59 20 -25 8 -39 15 -32 16 7 0 10 5 6 12 -14 22 117 1
145 -24 14 -13 20 -16 14 -8 -20 22 -15 32 10 24 21 -6 21 -6 5 13 -10 11 -18
23 -18 26 0 4 22 18 48 31 47 24 84 56 64 56 -5 0 -15 -7 -22 -15 -7 -8 -20
-15 -29 -14 -12 0 -11 3 5 10 11 6 26 25 32 42 10 29 16 32 57 35 31 2 51 -2
61 -13 8 -8 21 -15 27 -15 7 0 6 4 -3 10 -8 5 -11 12 -7 16 4 4 13 2 19 -4 16
-16 33 -15 19 1 -8 11 0 30 35 83 24 38 36 59 25 46 -11 -13 -25 -21 -31 -17
-5 3 -13 -2 -16 -12 -15 -45 -18 -45 -24 2 -6 38 -15 59 -39 82 -26 26 -30 37
-25 60 10 40 15 47 26 32 5 -9 6 -4 2 14 -4 16 -2 27 4 27 7 0 8 11 2 31 -5
18 -12 77 -15 132 -5 83 -4 99 8 94 10 -4 13 1 9 19 -3 16 1 26 12 30 9 3 13
10 10 15 -3 5 10 42 29 82 19 40 42 104 51 142 19 82 35 254 24 257 -4 2 -14
24 -22 51 l-14 47 26 0 c25 1 26 2 9 14 -10 8 -18 17 -18 20 2 17 -2 24 -29
55 -17 18 -31 39 -31 45 -1 6 -3 20 -4 31 -1 11 -10 37 -19 59 -20 47 -20 47
-1 40 8 -4 15 -13 15 -20 0 -8 9 -32 20 -54 22 -43 25 -54 12 -46 -5 3 -9 -1
-9 -9 0 -8 7 -17 15 -20 11 -4 13 5 11 47 -2 29 0 59 4 66 5 7 4 12 -2 12 -6
0 -11 4 -11 9 0 6 12 3 28 -5 26 -13 28 -13 38 12 14 34 23 22 45 -71 12 -46
18 -60 18 -40 1 17 -6 57 -14 88 -17 67 -18 70 -7 63 4 -2 6 14 4 35 -3 32 -8
39 -20 34 -12 -4 -11 -1 4 16 19 22 19 22 -5 14 -16 -5 -21 -4 -17 4 5 7 -1
11 -14 11 -12 0 -18 4 -15 11 4 6 -2 13 -14 16 -12 3 -21 12 -21 21 0 8 -3 12
-7 9 -3 -4 -13 -1 -21 6 -13 10 -15 9 -9 -5 3 -10 2 -18 -4 -18 -7 0 -8 12 -4
30 4 19 3 30 -4 30 -6 0 -11 -8 -11 -17 -1 -16 -2 -16 -15 1 -18 23 -20 40 -4
30 8 -4 8 0 0 15 -14 25 -23 28 -15 4 4 -14 3 -15 -4 -5 -5 8 -8 28 -6 45 3
21 1 27 -5 19 -10 -17 -53 66 -58 112 -2 17 -7 34 -12 39 -5 5 -6 -4 -3 -20 5
-26 4 -27 -13 -13 -15 12 -17 12 -10 1 6 -10 4 -12 -4 -7 -7 5 -10 15 -6 24 3
8 2 18 -2 21 -5 3 -16 18 -26 34 -10 15 -22 27 -28 27 -8 0 -7 -5 1 -15 7 -8
8 -15 3 -15 -5 0 -24 30 -43 67 -19 37 -46 80 -59 96 -14 17 -26 35 -27 41 -5
27 -27 70 -31 59 -2 -7 1 -22 8 -35 11 -21 11 -22 -4 -10 -9 8 -19 24 -23 35
-4 12 -22 39 -41 60 -25 29 -32 42 -24 51 11 13 -4 33 -39 51 -8 4 -1 -4 15
-19 19 -16 25 -25 15 -26 -17 0 -45 39 -42 57 1 6 -5 14 -15 18 -10 3 -37 31
-61 61 -24 30 -46 52 -50 50 -4 -2 -33 15 -65 38 -31 24 -77 51 -102 60 -25
10 -45 22 -45 27 0 12 7 11 30 -1 16 -8 18 -8 14 5 -4 8 -9 15 -13 16 -3 0
-28 3 -56 5 -33 3 -56 12 -67 25 -9 10 -23 16 -31 13 -8 -3 -18 -1 -22 5 -3 7
2 11 14 11 11 0 22 4 25 8 3 5 -8 6 -25 4 -19 -3 -37 2 -49 13 -11 10 -20 14
-20 9 -1 -5 -13 5 -28 22 -26 30 -64 56 -89 60 -7 1 -25 11 -40 21 -37 26
-125 62 -160 67 -104 13 -135 20 -193 45 -58 25 -73 28 -135 22 -91 -8 -187
-3 -180 10 11 17 -1 9 -25 -16z m-175 -105 c-3 -5 -11 -10 -16 -10 -6 0 -7 5
-4 10 3 6 11 10 16 10 6 0 7 -4 4 -10z m-435 -331 c0 -11 -4 -18 -10 -14 -5 3
-7 12 -3 20 7 21 13 19 13 -6z m-21 -73 c-9 -8 -10 -7 -5 7 3 10 7 24 7 30 1
7 3 4 6 -7 3 -10 -1 -23 -8 -30z m-39 -27 c0 -11 -4 -18 -10 -14 -5 3 -7 12
-3 20 7 21 13 19 13 -6z m-34 -58 c-9 -10 -16 -23 -16 -29 0 -6 -4 -13 -9 -16
-15 -10 -6 23 12 45 9 10 17 25 18 32 0 9 2 9 6 -1 3 -7 -2 -21 -11 -31z m393
-327 c-6 -16 -13 -24 -16 -17 -5 13 16 58 23 50 3 -2 -1 -17 -7 -33z m449 29
c-3 -5 -11 -23 -18 -40 -12 -28 -30 -45 -30 -28 0 18 31 75 40 75 7 0 10 -3 8
-7z m-373 -48 c-8 -22 -14 -32 -15 -23 0 17 21 70 26 65 2 -1 -3 -21 -11 -42z
m255 -15 c0 -5 -4 -10 -10 -10 -5 0 -10 5 -10 10 0 6 5 10 10 10 6 0 10 -4 10
-10z m-368 -52 c-7 -7 -12 -8 -12 -2 0 14 12 26 19 19 2 -3 -1 -11 -7 -17z
m-1822 -62 c0 -3 -4 -8 -10 -11 -5 -3 -10 -1 -10 4 0 6 5 11 10 11 6 0 10 -2
10 -4z m-60 -16 c0 -5 -4 -10 -10 -10 -5 0 -10 5 -10 10 0 6 5 10 10 10 6 0
10 -4 10 -10z m88 -92 c-2 -6 -10 -14 -16 -16 -7 -2 -10 2 -6 12 7 18 28 22
22 4z m-218 -23 c11 -13 10 -14 -4 -9 -9 3 -16 10 -16 15 0 13 6 11 20 -6z
m4194 -73 c10 -19 15 -40 12 -48 -3 -8 -2 -13 3 -10 11 7 21 -17 21 -50 0 -47
-30 -5 -55 75 -5 18 -4 22 5 16 9 -5 11 -4 6 4 -4 6 -12 9 -17 6 -5 -4 -9 5
-9 19 0 14 -4 28 -10 31 -5 3 -10 13 -10 22 0 19 29 -15 54 -65z m-77 26 c-3
-8 -6 -5 -6 6 -1 11 2 17 5 13 3 -3 4 -12 1 -19z m-2850 -75 c-2 -16 -4 -5 -4
22 0 28 2 40 4 28 2 -13 2 -35 0 -50z m2887 20 l16 -48 -20 24 c-17 20 -28 71
-16 71 2 0 11 -21 20 -47z m-2915 -15 c-1 -13 3 -35 9 -50 6 -15 9 -35 5 -44
-4 -12 -11 -2 -24 31 -14 38 -15 51 -6 66 15 24 17 24 16 -3z m2905 -34 c3 -8
2 -12 -4 -9 -6 3 -10 10 -10 16 0 14 7 11 14 -7z m-2920 -64 c-6 -6 -10 -2
-11 12 -2 16 1 18 10 9 7 -7 8 -14 1 -21z m35 -84 c-9 -8 -10 -7 -5 7 3 10 7
24 7 30 1 7 3 4 6 -7 3 -10 -1 -23 -8 -30z m3025 -42 c9 -24 7 -28 -9 -14 -17
14 -20 30 -6 30 5 0 12 -7 15 -16z m-64 -44 c6 -11 7 -20 2 -20 -6 0 -12 9
-15 20 -3 11 -3 20 -1 20 2 0 8 -9 14 -20z m67 -12 c-3 -8 -6 -5 -6 6 -1 11 2
17 5 13 3 -3 4 -12 1 -19z m-2968 -80 c4 -13 11 -36 14 -53 5 -26 4 -24 -13
10 -19 40 -24 65 -15 65 3 0 9 -10 14 -22z m2851 -140 c0 -74 -5 -73 -14 5 -4
36 -2 57 4 57 6 0 10 -27 10 -62z m50 -34 c0 -8 7 -25 16 -39 13 -20 13 -27 3
-47 -20 -36 -23 -69 -4 -62 21 9 19 -10 -5 -31 -11 -10 -20 -28 -19 -39 1 -20
2 -18 15 23 2 8 7 11 10 8 8 -7 -17 -87 -27 -87 -5 0 -12 12 -15 27 -7 25 -8
26 -16 8 -5 -12 -6 34 -3 109 4 121 14 164 36 150 5 -3 9 -12 9 -20z m-2093
-160 c-2 -2 -13 -1 -25 3 -14 3 -22 13 -22 26 0 20 1 20 25 -3 14 -13 24 -25
22 -26z m2146 -6 c-3 -18 -10 -44 -15 -58 -7 -20 -7 -19 -3 9 3 18 5 44 5 57
0 13 4 24 10 24 5 0 7 -14 3 -32z m2 -134 c-9 -29 -23 -58 -31 -65 -8 -6 -14
-16 -14 -21 0 -6 6 -6 14 1 12 10 13 8 9 -9 -8 -28 -20 -34 -31 -13 -10 19 0
57 17 68 6 3 11 13 11 22 0 8 8 40 17 71 15 50 18 53 21 28 2 -16 -4 -53 -13
-82z m-2042 63 c3 -9 -2 -13 -16 -11 -33 4 -34 5 -12 14 11 5 21 9 21 9 1 1 4
-5 7 -12z m-57 -16 c-6 -8 -66 -21 -66 -14 0 5 43 22 58 22 7 1 11 -3 8 -8z
m-41 -41 c-3 -5 -12 -10 -18 -10 -7 0 -6 4 3 10 19 12 23 12 15 0z m2068 -18
c-3 -12 -9 -22 -14 -22 -12 0 -11 7 2 32 13 25 20 19 12 -10z m-3037 -214 c5
-7 0 -9 -14 -6 -16 4 -19 2 -15 -11 4 -14 3 -14 -6 -1 -6 8 -11 18 -11 23 0
12 38 8 46 -5z m244 -152 c0 -3 -4 -8 -10 -11 -5 -3 -10 -1 -10 4 0 6 5 11 10
11 6 0 10 -2 10 -4z m2740 -17 c-7 -11 -14 -18 -17 -15 -3 3 0 12 7 21 18 21
23 19 10 -6z m43 -63 c3 -41 1 -63 -4 -55 -7 11 -9 9 -9 -6 0 -12 5 -26 11
-32 8 -8 8 -16 0 -30 -11 -16 -11 -16 -6 5 6 21 5 22 -12 11 -15 -9 -26 -8
-51 5 -18 9 -32 20 -32 25 0 28 81 164 91 153 4 -4 9 -38 12 -76z m-2803 -20
c0 -3 -4 -8 -10 -11 -5 -3 -10 -1 -10 4 0 6 5 11 10 11 6 0 10 -2 10 -4z
m2775 -216 c3 -5 1 -18 -4 -27 -10 -17 -10 -17 -11 0 0 9 -5 17 -11 17 -5 0
-7 5 -4 10 8 13 22 13 30 0z m41 -21 c3 -6 0 -15 -7 -20 -22 -14 -28 -11 -22
11 6 22 18 26 29 9z m26 -55 c-7 -46 -13 -50 -33 -25 -24 29 -24 38 -1 44 27
7 37 1 34 -19z m-4367 -22 c-3 -3 -11 0 -18 7 -9 10 -8 11 6 5 10 -3 15 -9 12
-12z m2101 -28 c-4 -9 -9 -15 -11 -12 -3 3 -3 13 1 22 4 9 9 15 11 12 3 -3 3
-13 -1 -22z m-1621 -63 c3 -5 1 -12 -5 -16 -5 -3 -10 1 -10 9 0 18 6 21 15 7z
m1165 -121 c13 -8 13 -10 -2 -10 -9 0 -20 5 -23 10 -8 13 5 13 25 0z m-84 -22
c5 -7 3 -8 -6 -3 -10 6 -12 4 -7 -8 3 -10 2 -17 -3 -17 -11 0 -13 23 -3 33 9
9 11 9 19 -5z m114 0 c36 2 50 -1 41 -7 -7 -5 -11 -14 -7 -19 10 -16 -16 -52
-37 -52 -10 0 -28 5 -40 12 -20 10 -21 10 -8 -5 7 -10 22 -17 32 -17 10 0 21
-4 24 -10 8 -13 -75 -13 -108 -1 -34 13 -42 49 -12 57 17 4 22 12 20 30 -2 21
1 23 19 17 11 -4 46 -6 76 -5z m2407 -4 c-3 -3 -12 -4 -19 -1 -8 3 -5 6 6 6
11 1 17 -2 13 -5z m33 -10 c0 -8 -4 -12 -10 -9 -5 3 -10 10 -10 16 0 5 5 9 10
9 6 0 10 -7 10 -16z m-2066 -79 c-4 -8 -8 -15 -10 -15 -2 0 -4 7 -4 15 0 8 4
15 10 15 5 0 7 -7 4 -15z m1769 -63 c9 -8 17 -20 17 -25 0 -6 -10 -1 -22 10
-13 11 -31 23 -40 26 -10 4 -18 11 -18 17 0 12 34 -3 63 -28z m-1809 -29 c-5
-43 -10 -51 -24 -37 -7 7 -5 21 6 42 20 41 24 40 18 -5z m-334 17 c0 -5 -4
-10 -10 -10 -5 0 -10 5 -10 10 0 6 5 10 10 10 6 0 10 -4 10 -10z m229 -107
c-18 -23 -39 -41 -64 -54 -11 -6 0 7 25 30 49 44 60 50 39 24z m1016 -52 c3
-5 2 -12 -3 -15 -5 -3 -9 1 -9 9 0 17 3 19 12 6z m-1255 -31 c0 -5 -8 -10 -17
-10 -15 0 -16 2 -3 10 19 12 20 12 20 0z m85 -10 c3 -6 -1 -7 -9 -4 -18 7 -21
14 -7 14 6 0 13 -4 16 -10z m1716 -33 c-13 -12 -20 -15 -16 -7 14 26 28 41 33
35 3 -3 -5 -16 -17 -28z m-461 -7 c0 -5 -5 -10 -11 -10 -5 0 -7 5 -4 10 3 6 8
10 11 10 2 0 4 -4 4 -10z m20 -46 c0 -8 -4 -12 -10 -9 -5 3 -10 10 -10 16 0 5
5 9 10 9 6 0 10 -7 10 -16z m303 -265 c4 -16 3 -18 -9 -8 -16 13 -19 29 -5 29
5 0 11 -9 14 -21z m31 -24 c3 -8 1 -15 -4 -15 -6 0 -10 7 -10 15 0 8 2 15 4
15 2 0 6 -7 10 -15z"/>
<path d="M10114 6997 c-2 -7 0 -24 5 -38 9 -22 10 -21 10 14 1 37 -5 48 -15
24z"/>
<path d="M10141 6934 c0 -11 3 -14 6 -6 3 7 2 16 -1 19 -3 4 -6 -2 -5 -13z"/>
<path d="M10109 6893 c-2 -21 -1 -54 2 -73 7 -41 9 -36 13 48 3 67 -10 87 -15
25z"/>
<path d="M8139 8835 c-2 -2 -42 -6 -88 -9 -49 -4 -101 -14 -128 -26 -53 -24
-139 -89 -173 -133 -21 -28 -19 -27 20 8 64 58 135 105 159 105 11 0 22 4 26
9 3 6 26 13 51 17 34 5 48 3 55 -7 7 -12 9 -12 9 0 0 10 10 12 41 8 30 -4 42
-2 46 10 3 8 9 10 12 5 4 -5 20 -4 41 3 l35 12 -51 1 c-29 1 -53 -1 -55 -3z"/>
<path d="M1077 8804 c2 -6 13 -14 24 -17 11 -3 23 -15 26 -26 3 -12 9 -21 14
-21 11 0 12 -27 2 -33 -5 -2 -2 -2 5 -1 6 2 12 -1 12 -7 0 -10 24 -39 32 -39
11 0 5 40 -8 51 -8 6 -14 18 -14 25 0 8 -4 14 -8 14 -4 0 -15 13 -25 29 -17
28 -70 51 -60 25z"/>
<path d="M3860 8791 c0 -37 17 -49 35 -25 23 31 19 54 -10 54 -21 0 -25 -5
-25 -29z"/>
<path d="M8020 8790 c-9 -6 -10 -10 -3 -10 6 0 15 5 18 10 8 12 4 12 -15 0z"/>
<path d="M246 8758 c-12 -20 -29 -82 -30 -113 -1 -5 -7 -16 -14 -24 -7 -7 -10
-21 -7 -30 4 -9 9 -32 12 -51 4 -19 14 -45 24 -58 10 -13 21 -36 24 -52 12
-55 -43 -200 -99 -262 -27 -30 -38 -36 -30 -15 3 8 -6 13 -28 15 -43 3 -61 30
-64 94 -1 28 -9 83 -16 122 l-13 71 -3 -170 c-1 -93 0 -175 2 -181 3 -7 20
-15 38 -19 18 -4 39 -12 45 -17 18 -14 46 -1 39 18 -3 8 -2 12 3 9 5 -3 11 5
13 17 4 29 126 91 180 91 20 1 36 3 36 6 -1 5 10 35 29 81 3 8 8 29 10 45 2
17 10 49 18 73 14 42 14 42 -10 36 -32 -8 -45 19 -46 98 -1 53 -7 72 -35 118
-19 31 -34 63 -34 72 0 23 -11 48 -21 48 -5 0 -15 -10 -23 -22z"/>
<path d="M8035 8760 c-3 -5 -2 -10 4 -10 5 0 13 5 16 10 3 6 2 10 -4 10 -5 0
-13 -4 -16 -10z"/>
<path d="M2589 8723 c-1 -4 -1 -12 0 -17 1 -5 -4 -13 -11 -18 -10 -6 -7 -10
10 -14 22 -6 28 -33 24 -104 0 -14 -3 -87 -6 -162 l-5 -138 32 -8 32 -8 6 -85
c7 -92 30 -149 59 -149 10 0 20 5 22 12 4 10 14 9 46 0 39 -12 57 -32 30 -32
-7 0 -2 -9 12 -20 27 -21 65 -23 81 -3 7 8 7 31 -1 70 -6 32 -13 75 -16 97 -8
61 -85 216 -108 216 -20 0 -45 -26 -46 -48 0 -16 -50 -61 -67 -62 -19 0 -35
39 -28 67 3 14 8 44 11 66 12 110 16 127 35 151 14 18 22 46 25 91 2 37 0 64
-4 62 -4 -2 -15 -7 -26 -11 -15 -5 -16 -9 -5 -22 11 -13 9 -14 -14 -3 -15 7
-27 17 -27 24 0 13 -59 60 -61 48z"/>
<path d="M1167 8643 c-4 -3 -7 -11 -7 -17 0 -6 5 -5 12 2 6 6 9 14 7 17 -3 3
-9 2 -12 -2z"/>
<path d="M7800 8609 c-25 -23 -31 -32 -15 -20 51 35 81 61 70 60 -5 0 -30 -18
-55 -40z"/>
<path d="M3142 8612 c-6 -17 -20 -39 -31 -49 -12 -9 -21 -23 -21 -30 0 -7 -5
-22 -11 -32 -9 -14 -8 -31 8 -77 16 -47 19 -78 16 -146 -3 -73 0 -95 18 -137
20 -46 24 -50 48 -44 41 10 71 22 71 29 0 13 -24 89 -31 99 -4 6 -5 52 -3 104
2 52 0 99 -5 105 -20 26 -37 103 -31 139 4 23 2 44 -5 54 -11 14 -13 12 -23
-15z"/>
<path d="M7725 8619 c-4 -6 -5 -12 -2 -15 2 -3 7 2 10 11 7 17 1 20 -8 4z"/>
<path d="M1166 8592 c6 -4 14 -14 17 -22 4 -10 6 -8 6 8 1 15 -5 22 -16 22
-11 0 -14 -3 -7 -8z"/>
<path d="M7677 8551 c-19 -32 -21 -41 -9 -41 8 0 34 61 29 67 -2 1 -11 -11
-20 -26z"/>
<path d="M2463 8544 c-9 -9 -10 -15 -2 -20 14 -8 30 8 21 22 -5 9 -10 8 -19
-2z"/>
<path d="M1710 8509 c0 -5 5 -7 10 -4 6 3 10 8 10 11 0 2 -4 4 -10 4 -5 0 -10
-5 -10 -11z"/>
<path d="M1738 8453 c7 -3 16 -2 19 1 4 3 -2 6 -13 5 -11 0 -14 -3 -6 -6z"/>
<path d="M1800 8440 c0 -5 5 -10 11 -10 5 0 7 5 4 10 -3 6 -8 10 -11 10 -2 0
-4 -4 -4 -10z"/>
<path d="M1770 8430 c0 -5 5 -10 11 -10 5 0 7 5 4 10 -3 6 -8 10 -11 10 -2 0
-4 -4 -4 -10z"/>
<path d="M2320 8391 c0 -11 6 -26 13 -33 18 -18 37 -88 37 -134 0 -47 26 -102
60 -123 13 -9 21 -11 18 -6 -3 6 0 16 8 23 8 7 14 9 14 5 1 -11 16 17 24 45 6
16 3 22 -8 22 -9 0 -15 3 -14 8 1 4 -4 21 -11 37 -7 17 -17 40 -21 52 -5 12
-25 44 -45 72 -38 53 -75 68 -75 32z"/>
<path d="M1380 8350 c0 -5 5 -10 11 -10 5 0 7 5 4 10 -3 6 -8 10 -11 10 -2 0
-4 -4 -4 -10z"/>
<path d="M1380 8320 c0 -5 5 -10 11 -10 5 0 7 5 4 10 -3 6 -8 10 -11 10 -2 0
-4 -4 -4 -10z"/>
<path d="M1346 8292 c-4 -8 -2 -57 9 -147 12 -103 13 -131 21 -446 6 -283 6
-306 -10 -312 -10 -4 -14 -12 -11 -17 4 -6 -1 -22 -10 -36 -11 -17 -14 -35
-10 -52 4 -15 9 -67 11 -115 3 -62 10 -102 25 -134 12 -26 22 -65 24 -87 3
-44 13 -251 21 -461 3 -71 7 -155 10 -185 4 -57 4 -63 4 -119 -1 -40 8 -71 20
-71 12 0 19 49 7 53 -10 3 -11 95 -3 187 3 30 26 58 26 31 0 -6 5 -11 10 -11
6 0 9 3 9 8 -1 4 0 9 1 12 1 3 4 22 5 42 3 30 1 36 -12 31 -12 -5 -14 -1 -9
15 13 40 8 97 -11 132 -19 36 -21 58 -8 98 7 22 45 32 45 12 0 -27 38 30 43
64 4 22 11 42 17 46 6 4 8 14 4 24 -4 11 1 24 15 37 11 11 23 32 26 47 4 15
12 52 20 82 12 42 12 56 2 62 -7 5 1 6 18 2 27 -7 29 -6 16 9 -12 15 -11 17 2
17 9 0 18 -4 21 -9 3 -5 15 -7 27 -4 14 4 19 12 16 24 -3 11 0 19 6 19 7 0 5
5 -3 10 -8 5 -10 10 -5 11 6 1 15 2 20 4 6 1 19 3 30 4 11 2 15 5 8 8 -7 2
-13 11 -13 19 0 9 5 12 12 8 6 -4 8 -3 5 3 -12 19 -16 66 -7 83 10 19 -9 65
-25 59 -5 -2 -11 -16 -11 -31 -2 -45 -14 -79 -24 -73 -6 3 -10 0 -10 -8 0 -8
-9 -17 -20 -20 -11 -3 -20 -13 -20 -22 0 -12 -5 -15 -16 -11 -9 3 -18 6 -20 6
-2 0 -4 5 -4 11 0 5 5 7 12 3 7 -4 8 -3 4 5 -4 6 -12 9 -17 6 -5 -4 -9 2 -9
11 0 16 -1 16 -16 -2 -13 -16 -15 -16 -10 -1 3 9 2 17 -2 18 -4 0 -15 2 -24 4
-12 2 -15 -2 -11 -13 5 -11 2 -14 -10 -9 -9 3 -17 2 -17 -2 0 -5 -9 -7 -20 -4
-11 3 -20 0 -20 -6 0 -6 -8 -11 -19 -11 -16 0 -19 7 -17 43 0 23 5 40 10 37
13 -7 28 52 16 64 -6 6 -10 22 -10 37 0 15 -4 30 -10 34 -5 3 -7 12 -3 20 3 8
0 15 -6 15 -20 0 -12 75 13 124 25 49 25 70 1 80 -8 3 -11 13 -8 25 3 12 10
18 16 14 7 -4 8 0 3 12 -4 11 0 25 10 36 15 17 15 20 0 44 -9 13 -17 36 -18
50 -1 14 -5 25 -8 25 -14 0 1 126 19 161 14 27 16 40 8 48 -8 8 -7 11 5 11 9
0 25 14 35 30 9 17 21 30 26 30 5 0 4 6 -2 13 -6 8 -7 18 -3 22 4 5 2 5 -4 2
-7 -4 -17 0 -24 8 -11 13 -10 15 6 9 15 -4 16 -3 4 4 -8 5 -26 13 -39 17 -22
7 -23 5 -17 -19 3 -14 4 -26 1 -26 -11 0 -95 83 -95 94 0 14 -37 38 -44 28z"/>
<path d="M5432 8272 c-12 -2 -20 -8 -17 -13 4 -5 -1 -9 -9 -9 -9 0 -16 -4 -16
-9 0 -5 -8 -8 -17 -7 -15 1 -18 -6 -17 -36 1 -21 -2 -38 -7 -38 -13 0 -11 -28
2 -36 7 -4 21 -8 33 -9 35 -4 36 -4 36 -20 0 -8 7 -15 15 -15 8 0 15 -4 15
-10 0 -5 9 -10 20 -10 11 0 20 -4 20 -9 0 -4 15 -7 33 -5 17 1 26 0 19 -3 -6
-2 -9 -9 -6 -14 3 -6 12 -5 22 3 13 11 15 11 10 -4 -5 -12 1 -18 29 -23 25 -4
33 -10 29 -21 -4 -11 0 -10 22 3 l27 17 -20 -24 c-12 -14 -13 -20 -4 -12 9 6
19 9 22 5 4 -3 7 -1 7 6 0 8 9 7 30 -4 17 -9 30 -11 30 -5 0 5 5 10 11 10 5 0
8 -4 5 -9 -9 -13 31 -20 43 -8 8 8 11 8 11 -1 0 -8 7 -9 26 -2 14 6 29 8 34 5
12 -7 60 16 54 26 -3 5 -1 9 4 9 15 0 25 51 13 63 -6 6 -11 19 -11 28 0 10
-11 26 -25 37 -13 11 -22 21 -20 24 3 3 -13 11 -35 18 -28 9 -39 18 -36 27 3
8 1 11 -4 8 -6 -4 -17 1 -26 10 -9 9 -23 14 -30 11 -8 -3 -13 0 -11 6 4 19
-76 33 -228 41 -33 2 -70 1 -83 -1z"/>
<path d="M9749 8143 c23 -35 41 -50 41 -35 0 4 -14 21 -32 38 l-31 29 22 -32z"/>
<path d="M11235 8123 c-90 -11 -215 -47 -256 -74 -52 -33 -74 -35 -125 -14
-28 12 -45 13 -82 4 -26 -6 -60 -12 -77 -13 -50 -5 -186 -145 -231 -237 -19
-41 -47 -93 -61 -117 -25 -42 -25 -43 -14 -160 7 -64 12 -133 11 -152 0 -82
24 -187 61 -264 46 -96 66 -178 50 -212 -8 -19 -6 -28 14 -53 35 -41 43 -109
17 -137 -46 -48 -73 -126 -49 -141 26 -16 47 -10 47 14 0 32 17 63 35 63 24 0
46 -56 50 -128 2 -37 7 -85 10 -107 3 -22 10 -71 16 -110 13 -92 29 -155 40
-155 5 0 9 -6 9 -12 1 -7 9 -23 20 -36 23 -28 46 -21 30 9 -6 11 -9 23 -6 27
3 5 -8 28 -24 52 -32 49 -39 81 -44 216 -2 50 -6 96 -10 102 -3 5 -7 30 -7 54
-1 23 -5 48 -9 53 -19 24 8 405 33 471 15 39 15 72 1 174 -16 119 4 168 80
198 28 11 67 26 86 33 36 14 142 17 340 10 79 -3 119 0 159 12 30 10 70 17 89
17 31 0 100 -25 112 -41 3 -3 15 -9 28 -13 12 -4 22 -12 22 -17 0 -5 14 -9 31
-9 40 0 86 -33 87 -62 6 -137 11 -193 22 -251 14 -75 10 -89 -19 -63 -35 32
-122 55 -193 51 -116 -7 -179 -46 -201 -124 -16 -53 -14 -144 2 -149 6 -2 11
-11 11 -19 0 -9 3 -13 7 -10 3 4 12 2 20 -4 7 -6 13 -8 13 -3 0 5 5 2 10 -6 7
-11 10 -12 10 -2 0 9 7 11 20 7 10 -3 29 0 42 8 34 21 157 39 199 28 39 -9 66
0 55 18 -4 6 -2 11 3 11 6 0 11 9 11 20 0 34 26 22 39 -17 7 -21 13 -58 13
-83 0 -57 -12 -288 -16 -317 -4 -26 3 -28 39 -11 18 8 24 17 20 29 -9 28 11
57 45 64 20 4 32 14 36 31 8 32 -14 121 -32 128 -18 7 -18 46 0 46 20 0 35 76
23 114 -6 16 -18 31 -28 33 -33 9 -38 52 -15 124 12 36 29 77 39 92 17 26 46
35 61 20 4 -4 15 -8 24 -8 54 -2 121 -21 150 -42 18 -13 42 -26 54 -28 12 -3
25 -10 29 -17 4 -7 5 -60 3 -118 -3 -58 -6 -177 -7 -265 -2 -151 -10 -197 -33
-197 -5 1 -8 -7 -7 -16 1 -10 0 -11 -3 -4 -10 22 -34 13 -34 -13 0 -25 23 -35
35 -15 12 19 26 11 15 -9 -15 -29 -12 -33 11 -20 13 6 19 7 15 1 -3 -6 1 -17
10 -26 8 -9 13 -20 10 -24 -5 -9 -16 -141 -19 -232 -2 -58 8 -147 23 -216 5
-22 12 -61 15 -85 3 -24 9 -69 14 -99 12 -70 4 -110 -25 -133 l-23 -18 29 -57
c16 -31 32 -81 36 -109 3 -29 8 -53 10 -53 11 0 40 38 36 48 -2 7 1 12 7 12 6
0 10 3 10 8 -1 4 0 10 1 15 1 4 3 13 4 20 0 6 11 13 23 15 14 2 20 8 16 18 -3
8 1 14 10 14 10 0 15 7 12 20 -2 11 0 20 6 20 5 0 9 5 9 11 0 6 -6 9 -12 7
-16 -6 -41 19 -33 32 4 6 -1 7 -11 3 -11 -4 -15 -2 -11 4 4 6 1 11 -6 10 -42
-1 -56 4 -51 18 4 8 2 21 -4 28 -11 14 -23 94 -26 177 -2 49 1 58 29 88 18 17
37 32 44 32 6 0 11 5 11 10 0 7 16 9 43 5 39 -6 41 -5 22 9 -18 14 -18 15 -2
16 9 0 17 5 17 10 0 6 4 10 9 10 5 0 7 -8 4 -19 -4 -16 13 -31 33 -30 3 0 12
-8 19 -18 13 -17 14 -16 11 9 -1 15 -8 34 -16 43 -11 13 -10 15 6 9 16 -6 17
-5 7 7 -7 7 -13 17 -13 22 0 4 6 5 13 2 6 -4 4 0 -7 9 -10 8 -15 19 -12 25 4
5 1 13 -5 17 -8 5 -10 -1 -7 -20 6 -29 -3 -34 -22 -11 -7 8 -10 15 -6 15 3 0
-1 16 -9 36 -8 20 -13 40 -10 44 3 4 -1 10 -9 13 -24 9 -37 117 -15 125 5 2 9
8 9 14 0 6 -8 4 -18 -5 -10 -10 -22 -17 -25 -17 -9 0 14 42 28 52 15 11 -4 9
-26 -2 -22 -12 -23 -11 -9 24 6 17 6 26 0 26 -6 0 -10 -5 -10 -10 0 -6 -8 -5
-20 2 -11 7 -19 17 -17 23 5 13 40 13 49 0 4 -5 10 -6 14 -2 9 9 -16 38 -28
31 -5 -3 -16 0 -24 7 -12 10 -13 9 -8 -5 3 -9 1 -16 -5 -16 -6 0 -11 5 -11 11
0 5 -4 8 -9 4 -6 -3 -8 -14 -6 -25 2 -11 -1 -22 -6 -25 -5 -4 -7 -11 -4 -16
12 -18 -15 -9 -35 13 -22 24 -27 49 -7 46 7 -2 11 6 10 20 -2 16 1 21 9 16 8
-5 9 -2 5 9 -7 19 28 44 38 27 3 -6 -1 -13 -9 -16 -9 -3 -16 -14 -16 -23 1
-14 3 -13 15 3 8 11 15 15 15 9 0 -6 9 -9 20 -6 14 4 20 0 20 -12 0 -14 3 -15
14 -6 11 10 17 8 25 -6 9 -16 10 -16 11 -1 0 9 -8 21 -17 27 -10 5 -14 13 -10
18 5 4 15 0 22 -10 9 -13 20 -17 34 -12 17 5 20 3 14 -11 -6 -15 -4 -15 13 2
17 17 19 33 18 144 -1 69 -4 168 -8 220 -13 199 -15 290 -6 290 5 0 6 10 4 23
-8 31 -7 39 1 60 4 9 3 17 -3 17 -6 0 -7 13 -2 35 5 24 4 35 -4 35 -6 0 -4 5
4 10 9 6 16 27 17 57 1 26 3 53 3 58 2 41 -6 125 -12 125 -4 0 -3 12 3 28 6
15 12 35 15 46 2 10 9 25 16 34 23 27 17 62 -12 69 -14 3 -30 10 -36 14 -6 5
-49 9 -95 9 -46 -1 -95 2 -109 5 -36 9 -110 6 -145 -5 -45 -15 -58 -42 -44
-90 10 -31 9 -43 -1 -55 -7 -8 -10 -18 -7 -21 7 -7 -36 -45 -71 -63 -13 -7
-26 -11 -28 -8 -3 2 -6 44 -8 93 -4 99 -10 116 -114 333 -31 64 -73 112 -110
128 -20 8 -64 27 -97 43 -74 35 -84 37 -165 45 -36 4 -83 10 -105 15 -41 10
-56 10 -110 3z m1090 -1664 c-10 -15 -25 -10 -19 6 4 8 10 12 15 9 5 -3 7 -10
4 -15z m-5 -113 c0 -3 -4 -8 -10 -11 -5 -3 -10 -1 -10 4 0 6 5 11 10 11 6 0
10 -2 10 -4z"/>
<path d="M7141 7897 c-29 -35 -30 -38 -7 -17 24 22 52 60 44 60 -2 0 -18 -19
-37 -43z"/>
<path d="M9920 7914 c1 -16 24 -39 55 -52 17 -8 26 -10 20 -5 -5 4 -25 21 -42
37 -18 17 -33 26 -33 20z"/>
<path d="M2510 7850 c0 -19 3 -21 12 -12 9 9 9 15 0 24 -9 9 -12 7 -12 -12z"/>
<path d="M9000 7860 c0 -5 5 -10 11 -10 5 0 7 5 4 10 -3 6 -8 10 -11 10 -2 0
-4 -4 -4 -10z"/>
<path d="M10036 7827 c3 -10 9 -15 12 -12 3 3 0 11 -7 18 -10 9 -11 8 -5 -6z"/>
<path d="M2650 7815 c-10 -12 -10 -21 -1 -41 15 -33 37 -25 33 12 -4 38 -16
49 -32 29z"/>
<path d="M2080 7807 c0 -7 6 -22 14 -33 14 -18 15 -18 21 -1 4 9 5 24 1 32 -7
18 -36 20 -36 2z"/>
<path d="M52 7772 c-17 -2 -22 -8 -18 -19 4 -10 -2 -21 -14 -30 -19 -14 -20
-24 -20 -356 1 -250 4 -337 11 -323 7 10 8 35 5 58 -5 33 -2 46 26 86 18 26
35 55 38 65 5 17 8 16 35 -7 17 -14 32 -21 34 -15 5 15 -39 58 -53 53 -24 -9
-50 47 -34 72 10 16 11 77 3 184 -6 77 -4 103 10 140 33 89 30 101 -23 92z"/>
<path d="M13635 7770 c-3 -5 -12 -7 -20 -4 -8 3 -20 2 -27 -2 -12 -8 -124 -42
-158 -48 -30 -5 -70 -26 -70 -36 0 -5 -8 -10 -17 -11 -11 0 -13 -3 -5 -6 19
-8 3 -23 -21 -19 -12 1 -16 1 -9 -1 6 -3 12 -9 12 -14 0 -5 9 -9 20 -9 11 0
20 -4 20 -10 0 -8 60 -25 75 -21 4 1 15 -9 26 -23 11 -14 28 -28 39 -31 12 -4
17 -11 14 -18 -5 -8 -2 -8 7 1 7 6 18 12 23 12 6 0 4 -5 -4 -10 -13 -9 -13
-12 3 -21 9 -5 17 -17 17 -26 0 -13 3 -14 12 -5 18 18 32 14 17 -5 -10 -11
-10 -14 -1 -9 7 4 12 2 12 -8 0 -8 -6 -17 -12 -19 -10 -4 -10 -6 0 -6 8 -1 16
8 19 19 3 11 12 20 20 20 10 0 12 6 8 20 -4 11 -2 20 4 20 6 0 11 7 11 15 0 8
7 15 16 15 8 0 13 4 9 10 -3 5 8 39 25 75 17 37 33 82 35 101 4 29 2 34 -15
34 -11 0 -20 5 -20 10 0 6 -3 9 -7 9 -5 -1 -10 0 -13 1 -19 7 -41 7 -45 0z
m-135 -205 c9 -10 9 -15 1 -15 -6 0 -11 4 -11 9 0 5 -8 12 -17 14 -15 4 -15 5
-2 6 9 0 22 -6 29 -14z"/>
<path d="M2252 7648 c-1 -62 -30 -164 -52 -178 -12 -7 -15 -61 -6 -89 7 -21
10 -22 18 -8 5 10 6 22 3 27 -3 5 24 39 60 76 63 64 76 86 55 99 -9 6 -31 50
-44 88 -10 30 -34 20 -34 -15z"/>
<path d="M5380 7672 c0 -6 -3 -11 -7 -11 -18 3 -36 -1 -30 -7 3 -3 -5 -18 -19
-33 -17 -18 -23 -33 -19 -48 3 -13 1 -23 -4 -23 -5 0 -3 -12 5 -27 7 -16 14
-33 14 -40 0 -6 5 -13 11 -15 8 -3 6 -10 -5 -21 -11 -10 -13 -17 -5 -17 8 0 8
-5 -2 -17 -12 -14 -12 -15 -1 -9 11 7 12 4 3 -12 -6 -12 -11 -25 -10 -29 1 -4
1 -10 0 -13 -9 -25 -8 -80 1 -80 6 0 9 -3 5 -6 -3 -3 12 -24 34 -46 l39 -40
-6 -74 c-6 -73 -6 -74 27 -104 29 -26 35 -28 48 -16 13 12 18 12 28 1 6 -7 10
-15 7 -17 -2 -3 5 -13 15 -22 14 -13 18 -24 12 -39 -11 -33 -6 -178 6 -185 6
-4 13 -16 15 -27 6 -35 31 -55 63 -49 34 6 57 22 49 35 -3 5 -1 9 4 9 5 0 15
17 22 39 10 31 10 43 -1 62 -7 13 -13 29 -14 34 -1 20 -16 55 -24 55 -4 0 -5
15 -3 34 2 19 0 42 -6 52 -7 12 -5 26 8 48 10 17 16 42 14 56 -2 14 -5 34 -6
45 -3 23 -22 45 -38 45 -7 0 -9 7 -6 17 4 10 4 14 0 10 -12 -11 -66 34 -60 50
5 11 2 13 -10 9 -12 -4 -14 -1 -9 14 8 24 15 224 8 217 -8 -8 -53 35 -47 45 3
5 0 15 -6 23 -7 8 -9 22 -6 31 5 14 4 15 -8 5 -11 -9 -16 -6 -24 18 -12 34
-62 93 -62 73z"/>
<path d="M5956 7634 c-3 -9 -6 -17 -6 -18 0 -1 9 -2 20 -2 11 0 20 1 20 2 0
11 -14 34 -20 34 -4 0 -11 -7 -14 -16z"/>
<path d="M2017 7622 c-11 -16 7 -62 29 -77 32 -21 42 -13 36 27 -5 43 -49 77
-65 50z"/>
<path d="M346 7568 c-3 -24 -6 -86 -5 -138 0 -52 -4 -110 -10 -128 -13 -43 -6
-98 17 -146 15 -30 17 -47 11 -72 -12 -41 4 -87 28 -82 10 2 22 20 29 43 6 23
26 67 43 99 41 78 43 152 6 192 -14 15 -27 37 -29 48 -24 125 -58 226 -76 226
-4 0 -10 -19 -14 -42z"/>
<path d="M5916 7587 c3 -10 9 -15 12 -12 3 3 0 11 -7 18 -10 9 -11 8 -5 -6z"/>
<path d="M6086 7578 c3 -5 10 -6 15 -3 13 9 11 12 -6 12 -8 0 -12 -4 -9 -9z"/>
<path d="M2632 7561 c-44 -27 19 -306 69 -306 10 0 14 13 13 50 -2 92 -7 150
-16 168 -6 10 -12 31 -14 45 -9 54 -21 63 -52 43z"/>
<path d="M5870 7559 c0 -5 5 -7 10 -4 6 3 10 8 10 11 0 2 -4 4 -10 4 -5 0 -10
-5 -10 -11z"/>
<path d="M2823 7540 c-12 -5 -27 -19 -33 -31 -10 -18 -8 -25 14 -47 24 -25 26
-25 43 -9 10 10 29 25 42 35 18 14 22 24 17 40 -8 24 -42 29 -83 12z"/>
<path d="M13631 7434 c0 -11 3 -14 6 -6 3 7 2 16 -1 19 -3 4 -6 -2 -5 -13z"/>
<path d="M1740 7434 c0 -3 9 -17 20 -31 23 -29 25 -25 8 12 -10 22 -28 35 -28
19z"/>
<path d="M2942 7317 c-21 -25 -30 -63 -21 -80 12 -21 29 -22 29 -2 0 10 10 15
30 15 34 0 36 9 15 50 -17 32 -36 38 -53 17z"/>
<path d="M8995 7271 c-38 -16 -90 -30 -173 -45 -45 -9 -101 -25 -124 -36 -23
-11 -47 -20 -54 -20 -6 0 -17 -7 -24 -15 -11 -13 -9 -20 13 -43 24 -26 25 -28
10 -56 -8 -15 -13 -37 -10 -47 3 -10 1 -21 -3 -24 -4 -3 -6 -14 -3 -26 4 -16
12 -20 29 -16 14 2 24 -1 24 -7 1 -6 9 -1 19 12 25 29 37 29 17 0 -9 -12 -16
-26 -16 -30 0 -10 46 -10 89 -2 26 5 29 9 16 18 -12 9 -13 15 -2 35 19 37 32
35 46 -6 7 -21 15 -44 17 -51 4 -8 0 -10 -10 -6 -11 4 -16 1 -16 -10 0 -18 36
-23 42 -6 2 6 28 12 58 15 55 3 90 27 90 61 0 8 7 14 15 14 25 0 16 -23 -21
-54 -23 -19 -50 -30 -79 -34 -47 -5 -54 -12 -31 -31 10 -8 16 -9 21 -1 8 14
45 13 45 -1 0 -8 4 -8 14 1 8 6 23 10 33 9 42 -5 98 15 130 48 19 18 38 31 43
28 8 -5 13 14 24 93 3 22 -19 43 -53 48 -8 2 -17 7 -20 11 -3 5 -19 10 -36 11
-56 4 -175 34 -169 43 3 5 12 9 21 9 9 0 13 3 10 6 -11 11 41 45 77 51 52 8
99 -13 150 -68 38 -41 50 -49 69 -43 12 4 24 10 27 14 3 4 12 9 19 12 12 3 12
6 -2 11 -9 3 -17 2 -17 -3 0 -21 -16 -8 -40 31 -42 68 -200 128 -265 100z"/>
<path d="M1249 7234 c-6 -8 -6 -14 0 -18 5 -4 11 -1 14 6 2 7 2 2 0 -10 -3
-16 0 -23 9 -20 18 6 20 55 2 55 -8 0 -19 -6 -25 -13z"/>
<path d="M13567 7138 c2 -5 -1 -8 -6 -8 -6 0 -11 -8 -11 -18 0 -10 -5 -23 -12
-30 -16 -16 -17 -104 -2 -120 7 -7 11 -19 8 -27 -4 -8 -1 -15 5 -15 6 0 11 -7
11 -15 0 -18 12 -19 27 -4 7 7 10 -1 9 -28 -1 -27 -7 -42 -24 -54 -12 -8 -19
-19 -15 -22 3 -4 0 -7 -7 -7 -7 0 -19 -8 -27 -17 -8 -10 -12 -13 -8 -6 4 8 -3
8 -22 -2 -15 -8 -33 -15 -40 -15 -12 0 -28 -38 -20 -47 7 -6 42 -6 81 1 19 3
41 -3 65 -18 46 -28 107 -33 132 -10 26 23 26 103 2 125 -10 8 -22 17 -28 19
-5 3 -10 22 -10 44 0 28 -6 42 -21 53 -19 12 -20 19 -12 61 9 52 3 95 -18 130
-8 12 -13 26 -10 30 2 4 -8 8 -24 7 -15 0 -26 -3 -23 -7z"/>
<path d="M7155 7130 c-3 -5 -1 -10 4 -10 6 0 11 5 11 10 0 6 -2 10 -4 10 -3 0
-8 -4 -11 -10z"/>
<path d="M7120 7040 c-42 -66 -35 -73 9 -9 19 27 32 52 29 55 -3 2 -20 -18
-38 -46z"/>
<path d="M10900 7069 c-44 -4 -82 -15 -119 -35 -67 -36 -79 -53 -63 -88 9 -21
19 -26 47 -26 33 0 35 -2 25 -20 -14 -25 1 -56 32 -66 98 -31 207 -33 263 -4
37 20 69 78 66 122 -2 49 -14 73 -44 93 -31 20 -128 31 -207 24z"/>
<path d="M9310 7040 c0 -5 5 -10 10 -10 6 0 10 5 10 10 0 6 -4 10 -10 10 -5 0
-10 -4 -10 -10z"/>
<path d="M2930 7004 c0 -8 4 -23 10 -33 5 -10 11 -29 14 -42 5 -31 24 -79 30
-79 10 0 -2 116 -14 143 -14 29 -40 37 -40 11z"/>
<path d="M7260 7011 c0 -6 4 -13 10 -16 6 -3 7 1 4 9 -7 18 -14 21 -14 7z"/>
<path d="M10260 6996 c0 -8 5 -18 10 -21 6 -3 10 1 10 9 0 8 -4 18 -10 21 -5
3 -10 -1 -10 -9z"/>
<path d="M1235 6950 c-8 -13 4 -50 16 -50 5 0 9 14 9 30 0 30 -13 40 -25 20z"/>
<path d="M102 6910 c-28 -38 -75 -42 -88 -7 -5 14 -9 -31 -11 -122 -2 -79 -2
-146 1 -148 9 -9 96 36 96 50 0 8 7 20 16 28 41 34 57 116 39 197 -8 40 -25
41 -53 2z"/>
<path d="M9095 6860 c-3 -6 1 -7 9 -4 18 7 21 14 7 14 -6 0 -13 -4 -16 -10z"/>
<path d="M1240 6819 c0 -52 24 -48 28 4 2 28 -1 37 -12 37 -12 0 -16 -11 -16
-41z"/>
<path d="M1830 6847 c0 -13 31 -77 38 -77 18 0 6 53 -15 68 -13 8 -23 12 -23
9z"/>
<path d="M10439 6828 c-8 -15 -8 -32 1 -64 7 -24 16 -44 20 -44 4 0 14 14 23
31 26 54 -17 128 -44 77z"/>
<path d="M8810 6821 c0 -19 137 -36 173 -21 15 6 1 8 -48 8 -39 -1 -80 4 -92
11 -26 13 -33 14 -33 2z"/>
<path d="M7153 6788 c-15 -20 -25 -38 -20 -38 3 0 12 11 21 25 17 26 16 35 -1
13z"/>
<path d="M14795 6740 l-130 -5 -96 -52 c-106 -55 -151 -97 -205 -187 -19 -32
-46 -67 -59 -77 -12 -11 -47 -52 -76 -91 -30 -40 -59 -79 -66 -86 -7 -7 -13
-17 -13 -21 0 -4 -8 -16 -18 -27 -21 -23 -44 -63 -71 -124 -21 -50 -29 -80
-61 -225 -12 -55 -30 -129 -40 -165 -10 -36 -21 -81 -24 -100 -3 -19 -15 -69
-27 -110 -11 -41 -31 -149 -44 -240 -13 -91 -31 -194 -39 -230 -9 -36 -20 -97
-25 -135 -6 -39 -13 -78 -17 -88 -4 -11 -1 -17 9 -17 18 0 30 -27 20 -43 -4
-7 -8 -41 -9 -77 -3 -114 -24 -403 -35 -470 -5 -36 -12 -107 -14 -159 -2 -51
-6 -100 -9 -107 -3 -7 -1 -16 4 -19 6 -4 10 -61 10 -128 0 -148 4 -166 33
-161 12 2 16 1 9 -2 -10 -5 -10 -9 0 -21 27 -33 -3 -317 -51 -486 -16 -56 -41
-148 -55 -205 -24 -94 -47 -160 -81 -237 -34 -76 -47 -138 -40 -184 10 -61 12
-87 14 -141 0 -25 5 -40 9 -35 23 26 114 241 138 325 34 120 54 159 159 314
101 148 128 206 149 316 13 66 27 100 68 169 29 47 76 113 104 147 29 33 80
111 113 172 117 214 165 286 201 305 44 22 49 9 25 -63 -9 -27 -20 -77 -25
-111 -5 -34 -15 -68 -23 -78 -30 -33 -67 -115 -67 -148 0 -20 4 -32 10 -28 6
3 10 1 10 -4 0 -6 4 -11 9 -11 9 0 44 86 44 108 0 8 11 21 24 29 22 15 22 16
6 30 -10 8 -12 12 -5 8 7 -4 16 4 22 19 5 15 13 26 17 25 5 -1 15 -1 23 0 13
1 13 2 0 11 -9 6 -10 10 -3 10 7 0 14 24 19 58 3 31 13 69 20 84 17 32 18 76
3 115 -6 15 -11 44 -11 65 0 27 -4 35 -14 31 -10 -4 -14 3 -14 21 0 14 -6 26
-12 26 -7 0 -2 7 10 16 22 15 32 41 10 28 -8 -5 -9 -2 -4 12 4 10 8 24 9 29 1
6 7 13 12 18 7 4 6 10 0 15 -6 4 -11 18 -10 32 0 14 -5 24 -10 23 -6 -1 -11
10 -10 25 0 21 5 26 20 24 16 -2 17 -1 6 7 -8 5 -20 7 -28 4 -9 -4 -11 0 -7
11 3 9 11 13 18 9 6 -4 -12 15 -39 43 -28 27 -66 72 -85 99 -18 28 -37 52 -40
55 -4 3 -23 31 -41 63 -19 33 -44 75 -56 95 -41 69 -64 127 -84 212 -11 47
-29 102 -39 124 -15 29 -17 43 -9 58 6 12 8 39 5 62 -13 82 -8 150 12 197 26
60 36 65 70 39 15 -12 43 -29 62 -37 63 -27 180 -27 180 1 0 7 16 28 35 46 36
35 37 40 19 103 -4 12 0 17 14 17 31 0 46 24 30 50 -19 30 -144 89 -204 96
-80 10 -81 13 -46 85 17 35 34 78 38 94 11 50 50 129 75 152 27 24 93 44 224
68 140 25 239 47 251 57 14 10 47 6 66 -9 7 -6 29 -18 48 -28 19 -10 56 -39
81 -64 25 -25 66 -66 92 -89 69 -63 75 -77 81 -174 4 -78 18 -122 46 -148 23
-22 27 -67 20 -226 -5 -126 -12 -178 -24 -202 -9 -17 -16 -38 -16 -47 0 -8 -5
-15 -12 -15 -6 0 -9 -3 -5 -6 3 -3 -1 -23 -8 -44 -7 -21 -11 -41 -8 -44 3 -3
1 -11 -5 -18 -10 -13 -27 -70 -36 -124 -8 -42 -63 -144 -92 -170 -13 -12 -24
-26 -24 -33 0 -6 -6 -11 -13 -11 -7 0 -20 -9 -30 -20 -9 -11 -14 -20 -10 -20
3 0 -2 -9 -12 -20 -10 -11 -22 -20 -26 -20 -5 0 -50 -41 -101 -91 -110 -108
-146 -128 -252 -143 -63 -9 -82 -15 -84 -29 -3 -12 1 -15 14 -10 11 4 15 3 11
-4 -4 -6 6 -23 23 -36 16 -14 30 -28 30 -32 0 -3 12 -17 28 -31 23 -23 33 -25
71 -20 25 3 54 15 66 26 12 11 25 20 30 20 5 0 17 7 27 16 22 21 43 7 46 -32
1 -15 6 -30 11 -33 5 -3 7 -18 5 -34 -2 -17 1 -25 8 -21 6 4 6 -2 -1 -15 -15
-28 -13 -27 56 13 67 40 98 39 138 -5 75 -81 113 -119 121 -119 5 0 9 15 9 33
l0 32 60 1 c33 0 66 -4 73 -9 9 -7 11 -6 6 6 -3 9 -24 24 -47 33 -91 38 -117
117 -60 176 18 18 34 44 38 58 9 38 62 90 90 90 37 0 155 -117 155 -154 0 -31
-14 -61 -41 -91 -9 -11 -29 -44 -44 -72 -14 -29 -30 -53 -36 -53 -5 0 -9 -23
-9 -51 0 -43 3 -50 16 -45 9 3 19 6 23 6 4 0 22 29 40 64 40 79 51 89 104 90
50 1 237 -87 244 -115 7 -25 113 -70 136 -57 13 7 17 16 13 33 -3 13 -1 27 5
30 13 9 47 -26 41 -43 -4 -13 8 -15 32 -6 9 3 16 15 16 25 0 10 9 28 20 39 11
11 20 24 20 29 0 17 39 -1 46 -21 3 -12 11 -17 20 -14 8 3 13 2 10 -3 -7 -10
22 -23 34 -16 18 11 25 -23 25 -117 1 -78 4 -101 17 -115 27 -26 60 -5 76 48
16 58 23 334 8 354 -9 12 -46 15 -186 16 -229 2 -222 2 -219 -18 4 -42 -1 -46
-25 -20 -53 58 -139 283 -150 397 -4 36 -9 79 -12 95 -3 17 -9 100 -14 185 -5
85 -12 171 -14 190 -3 19 -7 51 -10 71 -2 20 -15 72 -29 116 -15 44 -31 101
-38 129 -14 61 -24 443 -14 554 5 63 -20 185 -49 234 -28 48 -257 299 -307
337 -46 35 -97 61 -139 70 -50 11 -146 36 -205 54 -65 18 -112 21 -270 15z
m-370 -1012 c41 -19 30 -35 -31 -42 -31 -3 -65 -11 -76 -17 -26 -14 -34 -5
-20 26 19 41 77 56 127 33z m1063 -610 c3 -22 -1 -28 -15 -28 -30 0 -43 14
-36 38 8 34 47 26 51 -10z m602 -868 c0 -5 -2 -10 -4 -10 -3 0 -8 5 -11 10 -3
6 -1 10 4 10 6 0 11 -4 11 -10z"/>
<path d="M1043 6708 c-11 -24 8 -174 42 -338 9 -41 22 -107 28 -147 7 -39 15
-75 20 -79 4 -4 7 -17 7 -30 0 -17 -7 -24 -30 -29 -35 -8 -38 -24 -10 -50 11
-10 20 -22 20 -27 0 -6 10 -18 22 -28 20 -16 21 -20 8 -36 -14 -18 -14 -18 3
-5 15 12 20 12 27 2 4 -8 13 -10 19 -7 6 4 11 3 11 -2 0 -15 -33 -24 -41 -11
-5 8 -14 3 -30 -15 -12 -14 -30 -26 -39 -26 -9 0 -24 -16 -33 -35 -15 -32 -16
-39 -2 -64 13 -25 28 -40 96 -95 22 -18 50 -16 80 5 30 21 49 10 43 -26 -2
-11 -4 -42 -6 -70 -2 -28 -10 -57 -18 -65 -18 -17 -18 -46 -1 -79 13 -23 16
-143 6 -191 -19 -88 6 -189 46 -190 8 0 31 54 28 66 -5 19 44 85 58 80 8 -3
17 -6 19 -6 2 0 4 -9 4 -19 0 -11 6 -26 13 -33 7 -8 13 -44 14 -88 1 -41 5
-104 9 -140 9 -81 9 -147 0 -375 -6 -129 -5 -197 4 -240 7 -33 13 -132 15
-220 3 -139 5 -1188 3 -1285 -2 -59 16 -499 36 -915 3 -44 8 -195 11 -335 4
-140 13 -343 19 -450 7 -107 12 -302 11 -432 l0 -237 -25 -23 c-13 -12 -36
-24 -51 -26 -22 -2 -27 2 -35 29 -6 19 -17 33 -28 35 -26 4 -45 24 -23 24 9 0
17 7 17 15 0 18 20 20 20 3 0 -7 5 -5 11 6 9 14 8 20 -1 26 -9 6 -9 12 0 30 9
18 9 25 -6 41 -9 10 -14 19 -10 19 4 0 2 9 -4 20 -6 11 -14 20 -19 20 -10 0
-33 -52 -30 -66 1 -5 -2 -18 -6 -28 -5 -13 -5 -21 2 -23 8 -3 7 -13 -3 -31 -8
-16 -12 -39 -8 -56 5 -21 3 -27 -6 -21 -9 5 -11 4 -6 -3 4 -7 4 -18 -1 -24 -4
-7 -8 -22 -9 -33 -2 -28 -35 -105 -46 -105 -4 0 -3 -9 4 -19 9 -15 9 -23 0
-34 -7 -8 -14 -29 -17 -46 -2 -17 -6 -40 -10 -51 -3 -11 -2 -20 3 -20 5 0 7
-22 4 -50 l-5 -50 675 0 675 0 6 68 c4 37 7 90 7 119 0 45 8 121 45 412 5 39
30 206 40 271 5 31 7 87 6 120 l-2 25 -13 -25 c-8 -14 -12 -28 -10 -31 2 -4
-3 -38 -12 -76 -8 -37 -16 -80 -16 -95 -2 -27 -27 -49 -29 -25 0 7 -4 1 -10
-11 -12 -32 -35 -22 -32 14 7 100 1 192 -14 217 -4 7 -8 19 -8 27 -4 44 -6 50
-20 50 -8 0 -15 7 -15 16 0 8 -5 12 -11 8 -6 -3 -15 -1 -19 6 -6 9 -13 7 -28
-8 -11 -11 -23 -18 -26 -15 -3 4 -6 1 -6 -5 0 -7 5 -12 12 -12 7 0 6 -6 -4
-17 -9 -10 -13 -24 -11 -30 3 -7 0 -13 -6 -13 -6 0 -11 -9 -11 -19 0 -11 -5
-23 -10 -26 -8 -5 -8 -11 0 -20 8 -10 8 -19 1 -34 -6 -12 -15 -30 -21 -41 -5
-10 -7 -26 -4 -35 3 -8 1 -15 -4 -15 -13 0 -32 -63 -32 -107 0 -18 -4 -33 -8
-33 -13 0 -10 -60 2 -60 6 0 3 -5 -7 -11 -12 -7 -16 -17 -12 -30 4 -13 2 -19
-9 -19 -10 0 -16 9 -16 23 0 12 -6 31 -14 42 -17 25 -26 75 -14 75 5 0 6 6 2
12 -5 7 -9 33 -10 58 -1 25 -5 63 -8 85 -3 22 -8 65 -11 95 -4 30 -11 57 -16
58 -5 2 -9 13 -9 25 0 12 -7 44 -15 70 -8 26 -10 45 -5 42 6 -4 10 3 10 14 0
13 -5 18 -13 15 -8 -3 -20 2 -27 10 -7 9 -16 13 -21 10 -5 -3 -9 0 -9 6 0 7
-7 10 -15 6 -13 -4 -13 -2 -5 14 13 24 13 33 -1 25 -6 -4 -13 2 -16 13 -3 14
-11 19 -21 15 -13 -4 -14 -3 -3 5 8 6 11 18 6 31 -17 54 -20 152 -6 180 5 9 7
36 5 61 -1 25 -4 84 -6 132 -2 49 -5 88 -8 88 -3 0 -6 23 -7 51 -2 53 -23 89
-51 89 -33 0 -98 85 -140 185 -69 160 -128 246 -147 215 -3 -5 -1 -10 4 -10 6
0 11 -6 11 -13 0 -7 -9 -13 -20 -13 -12 0 -19 5 -16 13 3 7 -3 17 -12 22 -14
8 -14 10 -2 11 13 0 13 1 0 10 -14 9 -22 70 -8 70 3 0 4 9 1 20 -4 14 0 20 11
20 22 0 15 36 -53 265 -34 115 -24 190 41 289 22 35 38 73 39 90 1 49 8 134
18 226 6 56 6 89 -1 97 -5 7 -7 17 -3 22 3 6 -6 23 -20 37 -20 20 -24 29 -14
35 7 4 13 17 14 28 1 15 -2 18 -10 11 -17 -14 -33 6 -27 35 2 15 9 22 16 18 6
-3 4 2 -5 13 -9 10 -15 29 -13 42 2 13 0 21 -5 17 -5 -3 -12 -1 -16 5 -3 5 -1
10 5 10 7 0 3 14 -9 33 -16 27 -18 36 -8 47 10 10 9 11 -2 5 -11 -6 -13 -3 -8
17 4 15 0 33 -9 46 -8 12 -12 27 -9 33 4 6 -3 13 -15 16 -13 3 -19 11 -16 20
3 8 2 12 -3 9 -5 -3 -14 8 -20 25 -8 23 -16 30 -33 27 -26 -3 -39 29 -16 43 8
6 9 9 1 9 -7 0 -11 14 -9 38 1 20 -3 60 -9 87 -7 31 -8 64 -3 88 5 21 6 43 2
48 -3 5 0 8 8 7 7 -2 12 4 10 14 -2 10 4 40 12 67 8 27 12 51 10 54 -9 8 -14
91 -8 120 4 18 12 27 25 27 18 0 19 2 4 30 -8 16 -14 31 -13 33 2 2 -9 17 -23
34 -21 25 -26 40 -24 75 1 24 -2 46 -9 51 -8 5 -7 9 3 16 9 6 10 11 2 15 -7 5
-7 15 -1 31 5 14 6 25 2 25 -14 0 -6 69 11 88 9 10 15 32 14 52 -1 19 2 69 7
110 5 41 8 86 7 100 -1 26 44 84 58 76 4 -3 7 5 7 16 -1 12 8 27 19 32 11 6
19 19 17 28 -2 9 6 23 17 30 12 7 21 18 21 24 0 6 6 17 14 23 11 9 14 9 13 -1
-1 -36 5 -45 41 -54 23 -6 41 -17 47 -31 5 -13 13 -23 16 -23 8 0 21 38 22 60
1 40 -5 58 -23 78 -11 12 -20 26 -20 32 0 17 -24 37 -38 32 -7 -2 -10 2 -6 11
4 10 -1 15 -13 14 -10 -1 -21 -9 -24 -17 -4 -10 -12 -2 -25 25 -24 50 -79 100
-114 101 -23 1 -26 -2 -22 -19 5 -19 4 -19 -16 1 -12 12 -26 22 -32 22 -5 0
-7 7 -4 15 4 8 2 15 -3 15 -5 0 -8 23 -6 52 1 28 -1 56 -6 62 -8 10 -8 23 0
51 3 13 -12 48 -25 57 -8 5 -39 -4 -54 -17 -2 -2 3 -16 11 -32 26 -50 43 -295
24 -350 -9 -28 -14 -32 -36 -27 -42 10 -61 40 -61 98 0 62 -16 121 -38 145
-20 20 -27 51 -12 51 5 0 10 15 10 33 0 23 8 40 25 55 25 22 26 23 8 52 -9 17
-21 30 -25 30 -4 0 -8 26 -8 58 0 67 -33 201 -52 214 -7 5 -22 7 -34 5 -11 -2
-26 3 -33 10 -15 16 -6 66 15 84 8 6 14 18 14 25 0 8 4 14 9 14 23 0 33 190
13 240 -15 38 -94 112 -105 101 -7 -7 -14 -6 -21 3 -21 27 -52 28 -63 4z m121
-614 c3 -8 2 -12 -4 -9 -6 3 -10 10 -10 16 0 14 7 11 14 -7z m876 -4794 c0 -5
-2 -10 -4 -10 -2 0 -12 -3 -20 -6 -12 -5 -15 -2 -10 10 7 17 34 22 34 6z
m-603 -896 c2 -13 1 -15 -4 -4 -3 8 -11 19 -17 23 -7 6 -6 7 4 4 8 -2 16 -12
17 -23z"/>
<path d="M360 6651 c0 -27 44 -86 62 -83 23 4 58 -45 58 -80 0 -37 -24 -84
-50 -98 -25 -13 -118 -11 -145 4 -11 6 -31 19 -44 29 -33 24 -41 22 -41 -11 0
-50 82 -104 93 -62 5 19 11 20 64 14 47 -5 63 -12 86 -35 34 -36 36 -85 5
-124 -31 -39 -25 -85 22 -184 40 -83 53 -101 76 -101 11 0 10 183 -2 315 -8
90 -7 124 6 155 12 32 20 130 9 130 -4 0 -6 9 -4 20 2 11 -4 29 -14 41 -15 19
-18 20 -30 5 -20 -24 -58 -20 -72 7 -14 27 -60 77 -71 77 -4 0 -8 -8 -8 -19z"/>
<path d="M611 6541 c-32 -21 -31 -135 2 -160 25 -18 35 -6 48 62 10 49 9 60
-5 82 -18 27 -24 29 -45 16z"/>
<path d="M11298 6515 l-28 -24 35 -37 c19 -20 35 -40 35 -45 0 -14 94 -50 118
-46 12 2 25 0 28 -4 3 -5 13 -9 22 -9 11 0 4 9 -18 23 -40 25 -90 73 -90 87 0
5 5 12 10 15 15 9 12 23 -10 45 -27 27 -69 25 -102 -5z"/>
<path d="M11140 6512 c-37 -41 7 -74 62 -46 44 22 44 21 23 44 -22 24 -64 25
-85 2z"/>
<path d="M6915 6490 c3 -5 8 -10 11 -10 2 0 4 5 4 10 0 6 -5 10 -11 10 -5 0
-7 -4 -4 -10z"/>
<path d="M18 6413 c-22 -6 -23 -17 -3 -33 19 -16 19 -87 0 -120 -8 -14 -14
-52 -15 -88 0 -56 3 -65 20 -69 11 -3 20 -10 20 -15 0 -5 -4 -7 -9 -3 -6 3
-15 -4 -21 -15 -9 -16 -8 -20 5 -20 8 0 15 -4 15 -8 0 -11 39 -12 45 -1 4 5 1
9 -6 9 -8 0 -8 4 1 15 7 8 16 13 20 10 4 -3 13 1 19 9 8 10 9 16 1 19 -6 3 -5
4 2 3 9 -2 13 -21 14 -57 0 -30 4 -60 8 -67 4 -7 4 -16 1 -22 -3 -5 -1 -10 6
-10 7 0 9 -3 6 -6 -11 -11 33 -64 53 -64 27 0 76 45 90 82 6 18 16 41 20 50
14 25 4 158 -15 203 l-17 40 -22 -26 c-15 -17 -21 -37 -21 -62 2 -34 -1 -37
-26 -37 -19 0 -30 6 -34 21 -5 16 -12 19 -30 15 -14 -4 -25 -1 -27 6 -2 6 -15
12 -29 13 -24 2 -58 47 -39 53 5 2 6 10 3 18 -3 8 -1 20 5 27 16 21 25 107 11
123 -12 14 -20 15 -51 7z m12 -287 c0 -3 -4 -8 -10 -11 -5 -3 -10 -1 -10 4 0
6 5 11 10 11 6 0 10 -2 10 -4z"/>
<path d="M10170 6401 c0 -5 5 -13 10 -16 6 -3 10 -2 10 4 0 5 -4 13 -10 16 -5
3 -10 2 -10 -4z"/>
<path d="M12255 6391 c-3 -5 -2 -12 3 -15 5 -3 9 1 9 9 0 17 -3 19 -12 6z"/>
<path d="M10140 6365 c0 -6 4 -15 9 -20 5 -6 11 -19 14 -30 5 -20 5 -19 6 1 0
11 -6 29 -14 40 -8 10 -15 14 -15 9z"/>
<path d="M13844 6362 c-18 -11 -34 -49 -29 -65 4 -8 20 -14 40 -14 31 0 34 3
33 31 -1 45 -19 65 -44 48z"/>
<path d="M625 6350 c3 -5 8 -10 11 -10 2 0 4 5 4 10 0 6 -5 10 -11 10 -5 0 -7
-4 -4 -10z"/>
<path d="M8623 6337 c-24 -11 -43 -24 -43 -28 0 -12 50 -20 68 -11 9 5 32 9
51 11 39 2 48 6 60 29 14 27 -82 27 -136 -1z"/>
<path d="M10195 6338 c4 -13 11 -27 16 -33 5 -5 4 5 -2 23 -12 36 -24 44 -14
10z"/>
<path d="M8392 6314 c10 -10 20 -15 24 -12 3 4 -5 12 -18 18 -22 12 -22 12 -6
-6z"/>
<path d="M11320 6321 c-8 -5 -37 -11 -65 -12 -27 -2 -79 -11 -115 -21 -35 -10
-76 -18 -90 -18 -36 0 -63 -21 -54 -43 6 -16 19 -18 101 -16 92 2 115 9 125
40 2 6 22 12 43 13 34 1 40 -2 43 -21 2 -17 -2 -23 -15 -24 -31 -1 28 -21 64
-21 18 0 62 10 98 22 57 19 66 25 63 44 -6 41 -154 85 -198 57z"/>
<path d="M625 6301 c-8 -14 -2 -111 8 -111 4 0 7 4 7 8 0 5 11 14 24 22 22 11
23 15 10 27 -8 8 -14 20 -14 27 0 19 -27 40 -35 27z"/>
<path d="M10170 6281 c0 -6 4 -13 10 -16 6 -3 7 1 4 9 -7 18 -14 21 -14 7z"/>
<path d="M8550 6259 c0 -7 -10 -9 -27 -4 -22 5 -25 4 -16 -6 7 -7 9 -19 3 -34
-8 -21 -5 -24 26 -29 54 -11 60 -2 36 57 -12 28 -22 35 -22 16z"/>
<path d="M10232 6220 c0 -14 2 -19 5 -12 2 6 2 18 0 25 -3 6 -5 1 -5 -13z"/>
<path d="M1842 6222 c-7 -5 -14 -25 -15 -45 -2 -20 0 -34 4 -32 4 3 10 -6 13
-20 4 -14 11 -25 16 -25 6 0 10 -8 11 -17 0 -15 1 -15 8 2 7 16 7 70 1 70 -1
0 -3 11 -4 24 -2 14 -8 27 -15 29 -6 2 -9 8 -5 13 6 11 3 11 -14 1z"/>
<path d="M1533 6192 c-29 -34 -29 -36 4 -51 23 -11 25 -10 13 3 -9 12 -10 16
0 16 7 0 10 7 6 15 -3 8 -1 15 4 15 6 0 10 7 10 15 0 22 -12 18 -37 -13z"/>
<path d="M3777 6158 c-97 -134 -136 -201 -170 -298 -54 -153 -67 -225 -67
-385 0 -126 4 -154 34 -275 18 -74 58 -214 89 -310 65 -202 90 -299 112 -425
21 -124 55 -419 55 -480 0 -58 11 -81 34 -72 21 8 20 15 -9 257 -31 263 -63
425 -124 630 -26 91 -52 183 -56 205 -3 21 -13 51 -20 65 -22 43 -63 210 -75
313 -24 185 6 344 96 521 64 127 86 162 125 196 16 14 32 40 35 58 6 28 4 32
-14 32 -12 0 -31 -14 -45 -32z"/>
<path d="M9045 6181 c-3 -5 -1 -12 5 -16 5 -3 10 1 10 9 0 18 -6 21 -15 7z"/>
<path d="M13463 6178 c-13 -6 -23 -15 -23 -20 0 -5 -4 -7 -9 -4 -5 3 -11 -1
-15 -9 -9 -24 33 -43 94 -41 52 1 55 2 56 28 1 15 -2 31 -5 36 -10 15 -74 21
-98 10z"/>
<path d="M13340 6170 c-8 -5 -12 -11 -9 -14 2 -3 11 -1 19 4 8 5 12 11 9 14
-2 3 -11 1 -19 -4z"/>
<path d="M8950 6161 c-18 -11 -86 -24 -118 -23 -18 0 -21 -4 -17 -19 5 -16 1
-19 -21 -19 -15 0 -36 -7 -46 -17 -10 -9 -18 -12 -18 -6 0 5 -13 10 -30 10
-16 0 -30 -3 -30 -7 0 -3 -8 -6 -19 -6 -11 0 -17 6 -14 12 3 8 -2 11 -16 7
-12 -3 -21 -9 -21 -13 0 -10 -20 -8 -37 3 -8 5 -13 3 -13 -7 0 -9 -5 -16 -11
-16 -5 0 -7 5 -4 10 9 14 -17 12 -40 -3 -22 -15 -177 -16 -257 -2 -32 5 -48 4
-48 -3 0 -6 21 -17 48 -26 38 -12 85 -14 242 -11 107 3 229 10 270 16 41 7 83
12 93 11 9 0 17 4 17 9 0 6 5 7 11 4 7 -5 4 -14 -7 -26 -28 -31 -10 -32 23 -1
66 59 133 123 133 127 0 8 -54 5 -70 -4z"/>
<path d="M10241 6134 c0 -11 3 -14 6 -6 3 7 2 16 -1 19 -3 4 -6 -2 -5 -13z"/>
<path d="M13368 6138 c9 -9 15 -9 24 0 9 9 7 12 -12 12 -19 0 -21 -3 -12 -12z"/>
<path d="M11241 6101 c-8 -5 -15 -18 -16 -28 -2 -30 60 -31 76 -2 9 17 8 23
-2 30 -18 11 -40 11 -58 0z"/>
<path d="M978 6083 c7 -3 16 -2 19 1 4 3 -2 6 -13 5 -11 0 -14 -3 -6 -6z"/>
<path d="M1441 6074 c0 -11 3 -14 6 -6 3 7 2 16 -1 19 -3 4 -6 -2 -5 -13z"/>
<path d="M4726 6053 c-10 -36 -20 -88 -18 -95 1 -4 -10 -34 -24 -65 -14 -32
-32 -71 -39 -88 -18 -42 -58 -175 -53 -180 11 -12 67 50 83 92 10 26 30 75 45
108 41 91 54 154 40 204 -11 43 -25 53 -34 24z"/>
<path d="M10757 6043 c-4 -6 0 -16 8 -23 8 -7 12 -16 9 -21 -3 -5 2 -9 10 -9
9 0 18 -11 22 -25 7 -29 59 -62 70 -44 3 6 -6 20 -22 32 -31 25 -47 41 -73 76
-11 15 -20 20 -24 14z"/>
<path d="M1430 6026 c0 -8 5 -18 10 -21 6 -3 10 3 10 14 0 12 -4 21 -10 21 -5
0 -10 -6 -10 -14z"/>
<path d="M6 6021 c-4 -7 -5 -15 -2 -18 9 -9 19 4 14 18 -4 11 -6 11 -12 0z"/>
<path d="M8814 6007 c-8 -21 -3 -29 13 -19 8 5 9 13 3 22 -7 12 -10 12 -16 -3z"/>
<path d="M11588 5966 c-31 -31 -128 -77 -147 -71 -15 5 -25 -2 -43 -29 -13
-19 -33 -40 -45 -45 -13 -6 -23 -15 -23 -19 0 -5 -10 -9 -22 -8 -13 1 -41 -3
-62 -10 -38 -10 -75 -4 -141 25 -11 5 -34 12 -52 15 -18 3 -55 22 -82 42 -28
20 -51 33 -51 30 0 -4 -9 -2 -20 4 -28 15 -25 -4 6 -35 14 -14 23 -29 20 -34
-3 -5 1 -11 9 -15 18 -6 20 -56 3 -56 -17 0 37 -54 104 -106 94 -71 208 -140
208 -125 0 5 13 7 30 5 24 -4 29 -2 24 10 -5 12 0 16 19 16 34 0 41 13 39 76
-1 52 0 53 34 64 19 6 34 18 34 26 0 8 4 14 8 14 5 0 14 16 22 35 8 20 21 35
30 35 9 0 26 9 38 20 12 11 28 20 36 20 8 0 18 5 22 11 4 8 -1 9 -17 4 -23 -8
-23 -7 3 16 15 14 29 40 33 62 6 40 4 44 -17 23z m-168 -240 c0 -3 -4 -8 -10
-11 -5 -3 -10 -1 -10 4 0 6 5 11 10 11 6 0 10 -2 10 -4z"/>
<path d="M10 5946 c0 -26 19 -39 41 -26 11 7 10 13 -5 29 -25 27 -36 26 -36
-3z"/>
<path d="M10202 5961 c-11 -7 -11 -9 2 -14 10 -4 16 -1 16 8 0 17 -1 17 -18 6z"/>
<path d="M7240 5870 c0 -11 4 -20 9 -20 5 0 7 9 4 20 -3 11 -7 20 -9 20 -2 0
-4 -9 -4 -20z"/>
<path d="M15043 5780 c-79 -11 -163 -41 -174 -62 -19 -35 16 -67 64 -59 4 1 1
-12 -8 -28 -22 -44 -19 -88 8 -115 13 -13 21 -28 19 -34 -11 -33 143 -62 202
-37 17 7 34 14 38 14 4 1 23 10 41 21 43 25 61 60 54 99 -6 26 -3 31 13 31 28
0 32 14 15 51 -22 50 -35 63 -91 91 -60 30 -109 38 -181 28z m174 -81 c31 -20
73 -79 55 -79 -4 0 -33 9 -63 19 -30 11 -84 22 -118 24 -34 3 -68 10 -74 16
-6 6 -7 11 -1 11 5 1 32 7 59 15 71 19 103 18 142 -6z"/>
<path d="M6106 5771 c-3 -4 1 -17 9 -27 10 -13 14 -15 15 -5 0 11 3 11 15 1
12 -10 15 -10 15 3 0 9 -9 21 -19 27 -24 12 -28 12 -35 1z"/>
<path d="M11571 5714 c-12 -31 -23 -64 -24 -75 -2 -10 -6 -22 -10 -25 -4 -4
-7 -15 -7 -25 0 -9 -7 -30 -15 -45 -8 -16 -15 -37 -15 -47 0 -9 -4 -25 -9 -35
-14 -25 -24 -56 -23 -64 1 -5 -5 -8 -13 -8 -17 0 -13 -16 21 -81 19 -37 23
-57 20 -117 -2 -40 0 -72 3 -72 4 0 13 16 20 36 7 19 26 51 42 69 40 46 47 72
54 233 4 75 11 145 16 154 17 32 10 113 -11 136 -12 12 -23 22 -25 22 -2 0
-13 -25 -24 -56z"/>
<path d="M6178 5733 c-11 -14 -11 -16 1 -9 8 5 16 3 22 -5 4 -7 11 -10 15 -7
3 4 0 14 -9 22 -13 14 -16 14 -29 -1z"/>
<path d="M10393 5702 c-11 -16 -31 -52 -44 -81 -22 -52 -22 -57 -11 -185 9
-102 26 -188 77 -391 36 -143 75 -303 86 -355 14 -68 25 -100 40 -112 24 -20
44 -24 33 -6 -4 6 -22 79 -40 162 -18 83 -58 257 -89 386 -46 194 -57 254 -60
345 -4 103 -2 114 25 180 16 39 30 73 30 78 0 17 -28 5 -47 -21z"/>
<path d="M955 5698 c-2 -7 -13 -39 -24 -70 -20 -55 -20 -88 0 -88 5 0 9 -5 9
-11 0 -13 38 -49 51 -49 5 0 6 7 3 15 -4 8 -11 15 -18 15 -7 0 -7 3 1 8 7 5
14 21 16 38 2 16 9 39 15 51 18 32 14 60 -9 76 -15 11 -17 16 -7 20 7 3 3 6
-10 6 -12 1 -24 -5 -27 -11z"/>
<path d="M4935 5604 c-6 -50 -3 -63 24 -119 19 -38 43 -71 61 -82 17 -11 69
-62 118 -114 70 -77 91 -108 110 -158 12 -35 38 -85 57 -110 19 -26 39 -60 45
-75 7 -18 16 -26 28 -24 28 6 17 53 -37 166 -69 140 -101 184 -176 237 -89 64
-117 99 -149 190 -37 107 -54 145 -65 145 -5 0 -12 -25 -16 -56z"/>
<path d="M4770 5633 c0 -5 5 -15 10 -23 7 -11 14 -12 27 -4 30 18 27 34 -6 34
-17 0 -31 -3 -31 -7z"/>
<path d="M9872 5579 c13 -9 115 -13 107 -4 -3 2 -31 6 -63 8 -34 3 -52 1 -44
-4z"/>
<path d="M719 5500 c-11 -6 -16 -26 -18 -61 -1 -28 -4 -56 -7 -60 -3 -5 -2
-15 3 -21 4 -7 9 -24 11 -37 7 -51 51 -90 66 -58 5 9 7 9 12 -1 4 -9 14 -4 35
19 24 27 26 33 13 46 -18 19 -18 29 1 13 22 -19 41 -7 21 13 -10 9 -14 17 -9
17 4 0 8 11 8 25 0 16 -5 23 -13 20 -6 -2 -19 -2 -27 1 -12 5 -13 9 -3 21 9
11 9 16 -1 22 -7 5 -14 16 -15 26 -3 20 -51 30 -77 15z"/>
<path d="M1099 5476 c11 -13 5 -45 -9 -56 -4 -3 -10 -18 -14 -33 -6 -26 -5
-27 14 -17 13 7 20 21 20 40 0 21 5 30 17 30 15 0 15 1 0 18 -10 10 -14 22
-10 25 3 4 -2 7 -12 7 -14 0 -15 -3 -6 -14z"/>
<path d="M8377 5469 c7 -7 15 -10 18 -7 3 3 -2 9 -12 12 -14 6 -15 5 -6 -5z"/>
<path d="M9660 5465 c7 -8 17 -15 22 -15 6 0 5 7 -2 15 -7 8 -17 15 -22 15 -6
0 -5 -7 2 -15z"/>
<path d="M151 5456 c-9 -11 -8 -15 6 -20 10 -4 14 -4 10 0 -4 4 -2 13 4 21 7
8 8 13 1 13 -5 0 -15 -6 -21 -14z"/>
<path d="M9166 5405 c-3 -8 -12 -15 -20 -15 -8 0 -18 -4 -21 -10 -11 -17 21
-11 43 9 23 19 28 31 13 31 -5 0 -11 -7 -15 -15z"/>
<path d="M8170 5390 c0 -5 5 -10 10 -10 6 0 10 5 10 10 0 6 -4 10 -10 10 -5 0
-10 -4 -10 -10z"/>
<path d="M7664 5314 c-18 -14 -18 -15 4 -4 12 6 22 13 22 15 0 8 -5 6 -26 -11z"/>
<path d="M7620 5295 c-7 -8 -19 -15 -26 -15 -8 0 -14 -4 -14 -10 0 -5 -4 -10
-10 -10 -5 0 -31 -13 -57 -28 -26 -16 -82 -39 -123 -51 -172 -53 -314 -160
-417 -314 -107 -161 -140 -280 -219 -802 -14 -93 -45 -246 -69 -340 -47 -186
-217 -728 -271 -867 -37 -95 -45 -137 -20 -103 8 11 12 23 9 27 -8 13 28 21
40 9 8 -8 7 -11 -4 -11 -24 0 -21 -57 3 -63 11 -3 21 0 23 6 2 7 50 152 106
322 210 636 242 761 294 1119 45 315 79 475 105 491 6 3 10 17 10 30 0 92 358
442 562 549 67 35 105 63 97 71 -3 3 -12 -1 -19 -10z m-745 -695 c-8 -30 -26
-129 -40 -220 -62 -402 -79 -493 -116 -639 -21 -86 -61 -228 -88 -316 -28 -87
-49 -161 -47 -163 2 -2 9 13 16 33 7 20 14 34 16 32 6 -6 -57 -204 -106 -332
-21 -55 -42 -118 -46 -140 -6 -27 -15 -41 -28 -43 -23 -5 -22 0 33 158 72 207
191 601 236 785 25 99 58 272 75 385 45 303 58 378 81 454 24 80 35 85 14 6z"/>
<path d="M6435 2840 c-3 -5 -1 -10 4 -10 6 0 11 5 11 10 0 6 -2 10 -4 10 -3 0
-8 -4 -11 -10z"/>
<path d="M16446 5292 c-15 -3 -16 -6 -5 -12 11 -7 10 -12 -4 -28 -9 -10 -14
-21 -11 -25 4 -4 0 -17 -9 -30 -19 -29 -8 -51 25 -52 13 -1 29 -4 34 -8 6 -3
21 1 33 10 20 14 22 21 16 62 -3 25 -7 51 -7 58 -1 8 -7 9 -19 2 -12 -6 -20
-5 -24 1 -4 6 -1 9 6 8 6 -2 13 2 15 7 4 11 -16 13 -50 7z"/>
<path d="M8680 5280 c0 -5 5 -10 10 -10 6 0 10 5 10 10 0 6 -4 10 -10 10 -5 0
-10 -4 -10 -10z"/>
<path d="M8714 5271 c8 -13 -16 -20 -34 -10 -9 4 -31 4 -50 0 l-35 -7 34 -12
c44 -15 46 -15 31 3 -16 19 -10 19 25 1 23 -12 24 -15 8 -19 -10 -3 -4 -5 15
-6 32 -1 43 12 20 23 -10 5 -10 7 0 12 13 6 7 24 -9 24 -6 0 -8 -4 -5 -9z"/>
<path d="M7898 5203 c-19 -32 -49 -81 -67 -110 -29 -45 -32 -55 -23 -80 7 -19
11 -22 11 -9 1 10 28 72 61 137 33 66 58 119 56 119 -2 0 -19 -26 -38 -57z"/>
<path d="M1000 5200 c-19 -24 -30 -47 -26 -56 3 -9 3 -21 -1 -27 -10 -17 -11
-47 -1 -41 5 3 7 13 6 22 -2 13 7 18 42 22 42 5 45 7 52 43 9 42 -4 77 -27 77
-7 0 -28 -18 -45 -40z"/>
<path d="M8660 5200 c0 -5 5 -10 11 -10 5 0 7 5 4 10 -3 6 -8 10 -11 10 -2 0
-4 -4 -4 -10z"/>
<path d="M8706 5200 c-13 -4 -16 -9 -9 -13 7 -4 15 -3 18 3 5 8 11 8 20 0 8
-7 16 -7 19 -2 8 13 -24 21 -48 12z"/>
<path d="M14738 5198 c-9 -7 -18 -22 -20 -33 -2 -16 3 -21 26 -23 44 -5 96 7
96 23 0 18 -39 45 -65 45 -12 0 -28 -6 -37 -12z"/>
<path d="M14580 5190 c-22 -14 0 -44 34 -48 28 -4 32 7 16 39 -12 21 -27 24
-50 9z"/>
<path d="M8740 5160 c0 -12 8 -12 35 0 18 8 17 9 -7 9 -16 1 -28 -3 -28 -9z"/>
<path d="M9177 5153 c-4 -3 -7 -11 -7 -17 0 -6 5 -5 12 2 6 6 9 14 7 17 -3 3
-9 2 -12 -2z"/>
<path d="M11491 4994 c0 -11 3 -14 6 -6 3 7 2 16 -1 19 -3 4 -6 -2 -5 -13z"/>
<path d="M6835 4990 c-14 -7 -8 -8 20 -3 22 3 42 7 44 9 9 8 -45 2 -64 -6z"/>
<path d="M14528 4983 c-55 -3 -70 -8 -78 -23 -9 -17 -2 -29 47 -78 32 -33 68
-64 80 -71 28 -14 70 -14 79 0 5 8 10 6 16 -6 8 -13 18 -15 47 -10 69 12 141
39 141 52 0 7 4 12 8 11 13 -5 109 51 115 66 9 24 -20 38 -75 38 -74 -1 -73
-1 -60 -14 7 -7 12 -22 12 -34 0 -17 -10 -26 -44 -39 -46 -18 -60 -19 -141
-12 -59 5 -129 42 -121 64 3 8 6 17 6 19 0 2 7 4 15 4 23 0 65 22 59 31 -3 5
-13 8 -22 7 -9 -1 -47 -3 -84 -5z m222 -151 c0 -8 -43 -32 -55 -32 -3 0 -5 6
-5 14 0 8 12 17 28 19 15 2 28 5 30 6 1 0 2 -3 2 -7z"/>
<path d="M14705 4981 c-45 -10 -19 -17 60 -18 69 -1 69 -1 35 12 -39 15 -51
16 -95 6z"/>
<path d="M6287 4963 c-12 -12 -7 -22 8 -17 8 4 15 10 15 15 0 11 -14 12 -23 2z"/>
<path d="M11510 4889 c0 -61 10 -110 22 -103 10 7 0 110 -13 134 -6 10 -8 -1
-9 -31z"/>
<path d="M9107 4875 c3 -8 -5 -30 -17 -50 -31 -50 -17 -43 20 9 36 53 35 51
11 53 -13 1 -18 -3 -14 -12z"/>
<path d="M1644 4808 c-16 -17 -22 -27 -14 -23 13 7 13 6 2 -7 -7 -9 -12 -20
-11 -24 1 -5 0 -11 -1 -14 -1 -3 -2 -31 -3 -63 -2 -60 8 -77 47 -77 36 0 46
27 40 113 -6 97 -12 127 -22 127 -5 0 -21 -14 -38 -32z"/>
<path d="M8440 4811 c0 -12 6 -21 16 -21 9 0 14 7 12 17 -5 25 -28 28 -28 4z"/>
<path d="M16385 4802 c-14 -7 -34 -12 -43 -11 -9 1 -26 1 -37 0 -19 -1 -18 -3
5 -21 14 -11 31 -20 38 -20 6 0 12 -6 12 -13 0 -7 9 -19 20 -27 11 -8 20 -21
20 -29 0 -20 81 67 86 93 8 44 -44 58 -101 28z"/>
<path d="M935 4800 c-14 -22 -6 -89 15 -140 46 -111 70 -104 69 20 -1 95 -18
129 -61 130 -9 0 -20 -5 -23 -10z"/>
<path d="M1896 4794 c-9 -23 -7 -85 3 -121 5 -18 12 -62 16 -98 9 -93 23 -126
26 -60 1 28 1 54 0 59 -2 7 -8 153 -10 214 -1 25 -26 30 -35 6z"/>
<path d="M12230 4710 c0 -21 14 -53 39 -91 22 -32 41 -64 44 -71 3 -10 7 -10
17 -1 11 10 4 29 -32 99 -48 96 -68 114 -68 64z"/>
<path d="M6069 4683 l-34 -38 38 34 c34 33 42 41 34 41 -2 0 -19 -17 -38 -37z"/>
<path d="M5969 4593 c-13 -16 -12 -17 4 -4 9 7 17 15 17 17 0 8 -8 3 -21 -13z"/>
<path d="M9893 4354 c3 -21 9 -72 13 -111 8 -83 1 -98 -50 -107 -52 -10 -151
-79 -190 -133 -48 -66 -64 -126 -76 -279 -10 -140 0 -338 20 -374 11 -20 13
-20 24 -5 17 24 49 15 57 -15 12 -50 22 68 10 127 -13 68 -14 206 -1 326 7 66
16 100 35 133 49 83 163 135 298 136 115 0 211 -45 267 -127 49 -72 101 -211
116 -314 8 -52 21 -102 29 -111 8 -9 16 -23 16 -31 1 -8 4 0 8 16 6 26 10 30
39 27 37 -2 36 -6 18 90 -29 146 -118 348 -188 424 -50 54 -165 112 -238 121
-64 7 -77 20 -84 83 -3 27 -9 73 -12 100 l-6 50 -38 0 c-21 0 -46 3 -56 7 -15
6 -16 1 -11 -33z m249 -254 c37 -11 86 -35 110 -53 75 -58 159 -219 199 -386
12 -48 28 -90 37 -97 22 -16 7 -32 -16 -18 -10 7 -23 40 -33 85 -32 151 -95
303 -153 366 -20 22 -66 55 -103 73 -56 28 -83 35 -148 38 -78 4 -94 1 -210
-43 -47 -18 4 16 60 40 72 30 149 29 257 -5z m-505 -212 c-3 -8 -6 -5 -6 6 -1
11 2 17 5 13 3 -3 4 -12 1 -19z m-2 -455 c5 -20 14 -33 23 -33 13 0 13 -3 4
-12 -40 -40 -78 151 -54 277 5 31 8 14 13 -80 4 -66 10 -135 14 -152z"/>
<path d="M15719 4144 c7 -4 22 -15 32 -25 20 -20 37 -22 109 -10 l45 7 -33 12
c-35 12 -178 27 -153 16z"/>
<path d="M17910 4124 c-42 -13 -95 -20 -161 -23 -15 -1 -30 -9 -34 -18 -4 -10
-9 -78 -11 -151 -2 -73 -8 -142 -14 -152 -30 -57 12 -223 44 -172 9 15 142 35
197 30 41 -4 58 -11 75 -32 33 -38 41 -108 19 -169 -17 -48 -17 -49 3 -69 l21
-21 48 21 c46 20 58 35 42 57 -14 19 -16 178 -4 229 7 26 10 56 8 66 -3 10 0
21 6 24 5 4 8 13 4 22 -3 8 2 23 12 34 16 18 16 20 -5 50 -14 20 -20 39 -16
54 4 17 -4 31 -34 59 -37 33 -40 40 -34 74 5 33 2 42 -26 71 -36 36 -66 40
-140 16z m140 -124 c-24 -15 -37 -11 -16 5 11 8 22 12 25 9 3 -3 -1 -9 -9 -14z"/>
<path d="M15494 4073 c-14 -44 -25 -62 -78 -132 -90 -120 -151 -309 -246 -766
-17 -82 -42 -186 -54 -230 -13 -44 -40 -136 -61 -205 -20 -69 -48 -162 -62
-208 -14 -45 -24 -84 -22 -86 2 -2 15 -6 29 -8 20 -2 25 2 33 32 5 19 37 130
72 245 35 116 77 273 95 350 64 282 101 431 130 516 28 85 127 291 189 397 34
58 40 97 15 106 -25 10 -34 7 -40 -11z"/>
<path d="M18315 3802 c3 -8 -8 -29 -25 -48 -30 -34 -30 -36 -31 -157 0 -67 -4
-146 -8 -176 -7 -48 -5 -56 16 -82 36 -43 110 -56 193 -35 41 11 71 25 82 39
10 12 18 18 18 13 0 -5 7 -3 15 4 14 12 120 10 281 -6 60 -6 61 -6 72 22 6 16
14 99 17 185 8 187 10 183 -107 185 -43 1 -108 5 -146 9 -37 5 -116 9 -177 11
-60 1 -126 3 -145 4 l-35 2 36 7 c21 4 55 6 78 4 31 -2 41 1 41 12 0 8 -5 15
-11 15 -5 0 -7 -4 -4 -10 3 -5 1 -10 -4 -10 -6 0 -11 5 -11 10 0 6 -5 10 -11
10 -5 0 -7 -4 -4 -10 8 -12 -1 -13 -23 -1 -10 5 -39 11 -65 14 -39 3 -47 1
-42 -11z"/>
<path d="M18505 3790 c-3 -5 1 -10 9 -10 9 0 16 5 16 10 0 6 -4 10 -9 10 -6 0
-13 -4 -16 -10z"/>
<path d="M14626 3737 c3 -10 9 -15 12 -12 3 3 0 11 -7 18 -10 9 -11 8 -5 -6z"/>
<path d="M14555 3720 c4 -6 11 -8 16 -5 14 9 11 15 -7 15 -8 0 -12 -5 -9 -10z"/>
<path d="M14530 3711 c0 -5 5 -13 10 -16 6 -3 10 -2 10 4 0 5 -4 13 -10 16 -5
3 -10 2 -10 -4z"/>
<path d="M8191 3624 c0 -11 3 -14 6 -6 3 7 2 16 -1 19 -3 4 -6 -2 -5 -13z"/>
<path d="M3850 3560 c0 -5 5 -10 11 -10 5 0 7 5 4 10 -3 6 -8 10 -11 10 -2 0
-4 -4 -4 -10z"/>
<path d="M12373 3560 c-47 -19 -54 -85 -10 -94 62 -13 107 -13 124 -1 14 11
16 16 6 26 -7 7 -13 20 -13 29 0 40 -56 61 -107 40z"/>
<path d="M3880 3542 c0 -15 51 -25 63 -13 8 8 5 11 -10 11 -12 0 -28 3 -37 6
-9 3 -16 2 -16 -4z"/>
<path d="M12542 3433 c-18 -7 -4 -23 19 -23 12 0 19 5 17 12 -5 14 -18 18 -36
11z"/>
<path d="M3440 3342 c0 -10 506 -456 640 -564 25 -20 66 -47 91 -61 26 -13 57
-32 70 -42 l24 -17 -30 6 c-16 4 -43 8 -60 10 -46 4 -94 33 -312 189 -111 79
-217 150 -235 157 -18 7 -40 19 -48 26 -17 14 -278 134 -292 134 -5 0 28 -28
74 -62 45 -34 261 -199 478 -368 217 -168 472 -364 565 -435 94 -70 175 -134
181 -142 19 -23 85 -64 94 -58 5 3 12 0 16 -6 5 -8 3 -9 -6 -4 -9 5 -11 4 -6
-4 4 -6 11 -9 16 -6 12 7 269 -139 525 -299 l60 -38 -49 44 -49 44 27 27 c14
14 26 33 26 42 0 9 11 27 25 40 13 14 20 25 15 25 -20 0 -9 18 19 29 44 19
132 8 169 -19 18 -13 32 -29 33 -34 5 -70 9 -73 64 -58 87 23 145 9 179 -43
l17 -25 39 32 c22 18 40 39 40 46 0 13 -63 74 -304 297 -70 65 -171 170 -223
232 -52 63 -104 118 -116 122 -12 5 -37 27 -55 50 -18 22 -38 41 -44 41 -5 0
-31 17 -57 38 -44 37 -141 79 -300 132 -36 12 -74 28 -85 36 -11 8 -37 14 -58
14 -26 0 -41 6 -49 18 -8 12 -20 17 -34 15 -12 -3 -71 16 -131 41 -134 57
-136 58 -128 80 9 22 37 16 159 -35 51 -21 100 -39 109 -39 9 0 21 -8 27 -18
8 -13 20 -17 40 -14 35 5 38 18 7 27 -22 6 -61 21 -451 174 -99 38 -186 67
-194 64 -9 -3 11 -15 49 -30 146 -56 168 -67 168 -83 0 -24 -54 -16 -155 24
-60 23 -141 53 -180 66 -38 12 -143 60 -232 106 -90 45 -163 79 -163 76z m659
-386 c9 -10 9 -16 1 -21 -13 -8 -42 14 -34 26 8 13 20 11 33 -5z m537 -207
c10 -17 -17 -29 -39 -17 -16 8 -17 12 -6 19 19 12 36 11 45 -2z"/>
<path d="M2805 3310 c4 -6 11 -8 16 -5 14 9 11 15 -7 15 -8 0 -12 -5 -9 -10z"/>
<path d="M2762 3168 c-18 -18 -15 -33 17 -67 50 -53 73 -31 38 38 -22 43 -35
49 -55 29z"/>
<path d="M4777 2853 c-12 -11 -8 -20 17 -31 29 -13 39 -6 25 19 -10 19 -30 25
-42 12z"/>
<path d="M2763 2733 c-7 -2 -13 -9 -13 -14 0 -14 24 -11 46 6 19 14 19 14 -1
14 -11 0 -26 -3 -32 -6z"/>
<path d="M6184 2440 c-33 -13 -80 -76 -98 -132 -28 -87 -17 -176 27 -225 31
-35 64 -29 108 17 82 86 92 249 21 333 -17 19 -26 20 -58 7z m65 -54 c19 -21
23 -35 23 -90 -1 -142 -85 -235 -161 -177 -50 39 -19 219 47 271 33 27 64 25
91 -4z"/>
<path d="M6221 2244 c0 -11 3 -14 6 -6 3 7 2 16 -1 19 -3 4 -6 -2 -5 -13z"/>
<path d="M2960 2260 c-9 -16 -8 -25 1 -36 18 -22 29 -17 29 15 0 38 -16 48
-30 21z"/>
<path d="M6355 2160 c-9 -14 3 -30 24 -30 18 0 41 18 41 32 0 12 -58 10 -65
-2z"/>
<path d="M6460 2139 c0 -5 5 -7 10 -4 6 3 10 8 10 11 0 2 -4 4 -10 4 -5 0 -10
-5 -10 -11z"/>
<path d="M4820 1996 c0 -2 8 -10 18 -17 15 -13 16 -12 3 4 -13 16 -21 21 -21
13z"/>
<path d="M4860 1966 c0 -2 8 -10 18 -17 15 -13 16 -12 3 4 -13 16 -21 21 -21
13z"/>
<path d="M4900 1936 c0 -2 8 -10 18 -17 15 -13 16 -12 3 4 -13 16 -21 21 -21
13z"/>
<path d="M4940 1906 c0 -2 8 -10 18 -17 15 -13 16 -12 3 4 -13 16 -21 21 -21
13z"/>
<path d="M5020 1846 c0 -2 8 -10 18 -17 15 -13 16 -12 3 4 -13 16 -21 21 -21
13z"/>
<path d="M6153 1762 c-7 -4 -33 -45 -58 -91 -25 -46 -77 -124 -115 -173 -68
-90 -89 -133 -73 -149 19 -19 60 20 105 101 103 182 164 307 155 316 -1 2 -8
0 -14 -4z"/>
<path d="M5738 1687 c-36 -56 -73 -90 -133 -123 -27 -15 -59 -32 -70 -38 -66
-36 -165 -126 -165 -150 0 -3 57 23 128 58 142 72 228 140 261 209 21 43 28
87 14 87 -5 0 -20 -19 -35 -43z"/>
<path d="M10345 1620 c4 -6 11 -8 16 -5 14 9 11 15 -7 15 -8 0 -12 -5 -9 -10z"/>
<path d="M7033 1470 c0 -30 2 -43 4 -27 2 15 2 39 0 55 -2 15 -4 2 -4 -28z"/>
<path d="M6290 1428 c-46 -49 -88 -141 -92 -201 -4 -55 -3 -57 13 -40 9 10 31
56 47 103 16 47 37 102 46 123 19 43 15 46 -14 15z"/>
<path d="M10216 1401 c4 -8 10 -41 13 -73 l6 -59 40 41 c24 25 32 38 21 34
-15 -6 -27 2 -54 32 -19 21 -31 33 -26 25z"/>
<path d="M3606 1345 c-19 -14 -157 -177 -153 -181 7 -8 159 79 170 97 6 10 17
19 24 19 6 0 15 4 18 10 3 5 0 7 -8 4 -8 -3 -18 0 -23 7 -5 8 -3 10 6 4 10 -6
12 -4 7 8 -3 9 -2 19 3 22 6 4 10 9 10 13 0 12 -37 9 -54 -3z"/>
<path d="M6470 1271 c0 -6 -15 -28 -32 -47 -18 -20 -38 -45 -45 -57 -16 -29
-16 -67 0 -67 15 0 94 167 83 177 -3 3 -6 1 -6 -6z"/>
<path d="M5419 1148 c-6 -13 -4 -46 2 -42 5 3 6 -2 3 -10 -3 -9 -10 -14 -14
-11 -4 3 -10 -1 -12 -8 -7 -17 2 -38 13 -31 5 3 5 -6 -1 -20 -6 -18 -6 -26 1
-26 6 0 7 -5 4 -10 -3 -6 0 -13 9 -16 8 -3 17 -13 21 -22 3 -9 3 -13 -1 -10
-8 9 -28 -10 -37 -36 -11 -27 -37 -2 -37 35 0 41 -17 36 -29 -8 -29 -110 -38
-274 -20 -353 14 -64 77 -188 98 -195 10 -3 40 -26 67 -50 65 -60 141 -89 215
-81 109 11 189 62 286 183 94 116 122 157 160 235 42 84 54 77 25 -14 -11 -35
-27 -90 -37 -123 -37 -130 -148 -286 -257 -361 -37 -26 -38 -28 -18 -36 12 -4
18 -12 15 -18 -12 -20 12 -10 54 23 26 19 45 43 48 60 3 17 21 38 44 55 21 15
39 34 39 42 0 8 9 29 21 45 31 45 75 147 83 189 4 21 20 66 36 100 15 35 29
71 30 82 3 27 -11 65 -21 58 -5 -3 -9 -1 -9 4 0 12 -29 20 -105 27 -96 9 -134
16 -141 26 -3 5 -14 9 -25 9 -10 0 -19 4 -19 9 0 4 -8 8 -17 7 -52 -3 -107 53
-87 86 5 7 2 8 -6 3 -8 -5 -37 -9 -66 -11 -28 -1 -57 -4 -63 -8 -5 -4 -31 14
-56 39 -25 25 -52 45 -58 45 -17 1 -117 94 -117 109 0 7 -5 9 -12 5 -8 -5 -9
-2 -5 9 5 13 1 25 -4 15z"/>
<path d="M6613 1096 c-12 -24 -25 -61 -29 -82 -4 -22 -16 -61 -28 -89 -17 -40
-20 -62 -15 -110 6 -62 2 -101 -31 -265 -30 -150 -125 -357 -221 -485 -49 -64
-50 -66 -22 -59 15 4 32 11 37 15 16 15 74 10 84 -6 6 -13 23 -15 78 -13 l69
3 3 42 c2 24 7 43 11 43 4 0 8 6 9 13 0 6 3 28 7 47 3 19 7 41 7 48 3 37 188
-32 188 -70 0 -11 5 -16 10 -13 6 3 10 -1 10 -9 0 -10 6 -13 15 -10 8 4 15 1
15 -5 0 -6 7 -8 15 -5 8 4 15 2 15 -3 0 -5 10 -9 22 -8 13 1 29 -5 36 -12 11
-10 17 -11 28 -2 10 8 20 6 44 -11 16 -12 34 -18 40 -15 5 3 10 2 10 -3 0 -13
63 -13 72 1 6 9 8 9 8 0 0 -18 41 -16 68 3 22 15 24 14 49 -10 26 -26 49 -26
39 0 -3 8 -1 14 3 14 5 0 11 -5 13 -11 3 -8 10 -6 21 5 16 16 22 14 18 -8 -1
-5 5 -6 14 -2 9 3 26 -1 38 -9 30 -21 477 -22 477 -1 0 21 21 34 60 38 33 3
35 1 32 -24 -3 -27 -1 -28 45 -28 l47 0 -41 40 c-27 28 -69 52 -134 79 -175
72 -201 88 -274 161 -38 40 -106 101 -150 138 -117 97 -172 148 -248 232 -108
119 -158 167 -200 192 -21 13 -102 85 -179 161 -77 75 -145 137 -152 137 -7 0
-22 -20 -33 -44z m1207 -1038 c0 -13 -23 -5 -28 10 -2 7 2 10 12 6 9 -3 16
-11 16 -16z"/>
<path d="M6110 975 c0 -8 2 -15 4 -15 2 0 6 7 10 15 3 8 1 15 -4 15 -6 0 -10
-7 -10 -15z"/>
<path d="M12409 870 c-14 -8 -15 -18 -8 -55 11 -58 11 -59 65 -95 72 -50 84
-22 30 75 -38 67 -63 89 -87 75z"/>
<path d="M859 603 c-16 -40 -19 -103 -6 -130 7 -17 6 -27 -4 -39 -11 -14 -11
-18 -1 -22 9 -3 10 -8 3 -16 -21 -25 -43 -102 -48 -166 -7 -97 -9 -112 -23
-145 -7 -16 -16 -42 -20 -57 l-9 -28 205 0 204 0 -5 33 c-10 64 -22 113 -39
152 -9 22 -17 41 -17 43 3 11 -1 21 -16 38 -31 35 -62 91 -59 105 0 3 -5 13
-12 21 -7 9 -14 31 -16 49 -7 61 -28 123 -45 134 -6 3 -11 14 -11 25 0 39 -66
41 -81 3z"/>
<path d="M5514 251 c11 -11 23 -21 28 -21 14 0 -1 19 -25 31 -22 12 -22 12 -3
-10z"/>
<path d="M410 109 c0 -5 5 -7 10 -4 6 3 10 8 10 11 0 2 -4 4 -10 4 -5 0 -10
-5 -10 -11z"/>
<path d="M482 95 c-11 -13 -9 -15 12 -15 18 0 24 4 20 15 -8 19 -15 18 -32 0z"/>
<path d="M13 93 c-8 -3 -13 -22 -13 -49 l0 -44 38 0 c36 0 37 1 37 35 0 29 -3
34 -18 29 -11 -3 -20 1 -25 14 -4 10 -13 17 -19 15z"/>
</g>
</svg>
